<svg width="36" height="36" viewBox="0 0 36 36" fill="none" xmlns="http://www.w3.org/2000/svg">
<path d="M8.83445 10.8213C3.96314 10.8213 0 14.7809 0 19.648C0 22.6698 1.43873 25.9188 4.2763 29.3048C4.69791 29.8079 5.11805 30.274 5.52123 30.6994C3.6891 31.199 2.58907 32.0967 2.58907 33.1444C2.58907 34.9992 5.80673 36 8.83417 36C11.8617 36 15.0793 34.9991 15.0793 33.1444C15.0793 32.0975 13.9796 31.1996 12.1487 30.6998C12.8801 29.9282 13.6672 29.0205 14.414 28.008C14.5871 27.7732 14.537 27.4428 14.3021 27.2699C14.0674 27.0971 13.7365 27.147 13.5633 27.3817C12.6617 28.6042 11.6857 29.6786 10.8341 30.532C10.7365 30.5818 10.6549 30.6608 10.6037 30.7604C9.84088 31.5095 9.19892 32.0652 8.83466 32.3688C8.47442 32.0681 7.84224 31.52 7.08917 30.7807C7.03512 30.6624 6.94019 30.5696 6.82435 30.5178C4.43113 28.1128 1.05667 23.9576 1.05667 19.6481C1.05667 15.3633 4.54577 11.8772 8.83438 11.8772C13.123 11.8772 16.6121 15.3633 16.6121 19.6481C16.6121 21.5193 15.9739 23.5401 14.7154 25.6544C14.5662 25.905 14.6486 26.2289 14.8994 26.3779C15.1502 26.5269 15.4745 26.4447 15.6236 26.1941C16.9807 23.9143 17.6688 21.7119 17.6688 19.6481C17.6689 14.7809 13.7058 10.8213 8.83445 10.8213ZM8.51108 33.4668C8.60623 33.5404 8.72038 33.5772 8.83445 33.5772C8.94853 33.5772 9.06261 33.5404 9.15782 33.4668C9.22264 33.4167 10.1056 32.7287 11.2824 31.579C13.0644 31.9421 14.0227 32.6412 14.0227 33.1445C14.0227 33.5203 13.5071 33.9637 12.6772 34.3015C11.6593 34.716 10.2945 34.9443 8.83424 34.9443C5.66697 34.9443 3.64582 33.8782 3.64582 33.1445C3.64582 32.6405 4.60432 31.9418 6.38732 31.5787C7.57074 32.7352 8.45492 33.4233 8.51108 33.4668Z" fill="#8E6954"/>
<path d="M8.83573 15.8105C8.00003 15.8105 7.20536 16.0741 6.53765 16.5729C6.30401 16.7474 6.25615 17.0783 6.43082 17.3118C6.60563 17.5452 6.93674 17.593 7.17039 17.4185C7.65393 17.0573 8.2298 16.8663 8.83566 16.8663C10.371 16.8663 11.6201 18.1143 11.6201 19.6484C11.6201 21.1824 10.371 22.4304 8.83566 22.4304C7.3003 22.4304 6.05122 21.1823 6.05122 19.6484C6.05122 19.3866 6.08746 19.1278 6.15889 18.8793C6.2394 18.5991 6.07733 18.3068 5.79689 18.2263C5.51652 18.1461 5.22383 18.3078 5.14325 18.588C5.04466 18.9314 4.99462 19.2881 4.99462 19.6484C4.99462 21.7645 6.71774 23.4862 8.8358 23.4862C10.9538 23.4862 12.677 21.7646 12.677 19.6484C12.6769 17.5322 10.9537 15.8105 8.83573 15.8105Z" fill="#8E6954"/>
<path d="M31.8614 15.3366C32.1303 15.0484 32.4072 14.7379 32.6849 14.4065C34.8846 11.7815 36 9.25806 36 6.90603C36 3.09811 32.8992 0 29.0879 0C26.3037 0 23.8038 1.65558 22.7192 4.21777C22.6055 4.48629 22.7313 4.79609 22.9999 4.90957C23.2686 5.02306 23.5788 4.89755 23.6924 4.6291C24.6113 2.45841 26.7292 1.05574 29.0879 1.05574C32.3166 1.05574 34.9433 3.68023 34.9433 6.9061C34.9433 11.2685 30.3593 15.448 29.0877 16.5231C28.8075 16.2865 28.3663 15.8992 27.8492 15.3927C27.7976 15.2905 27.7143 15.2095 27.6142 15.1594C25.7899 13.3242 23.2325 10.1694 23.2325 6.9061C23.2325 6.61451 22.996 6.37819 22.7041 6.37819C22.4123 6.37819 22.1757 6.61451 22.1757 6.9061C22.1757 9.25806 23.2911 11.7815 25.4909 14.4066C25.7685 14.7378 26.0453 15.0482 26.3139 15.3363C24.9519 15.7452 24.1656 16.4411 24.1656 17.2792C24.1656 17.986 24.7395 18.6089 25.7816 19.0331C26.6732 19.3961 27.8474 19.596 29.0878 19.596C30.3282 19.596 31.5024 19.3961 32.3941 19.0331C33.436 18.6088 34.0098 17.9859 34.0098 17.2791C34.0097 16.4426 33.2229 15.746 31.8614 15.3366ZM29.0878 18.5402C26.5867 18.5402 25.2224 17.7071 25.2224 17.279C25.2224 17.0002 25.843 16.4898 27.1683 16.2083C28.06 17.0752 28.7219 17.5903 28.7646 17.6234C28.8598 17.697 28.9739 17.7338 29.088 17.7338C29.202 17.7338 29.316 17.697 29.4113 17.6234C29.4541 17.5904 30.1158 17.0753 31.0075 16.2085C31.5979 16.3342 32.1094 16.5185 32.4673 16.7362C32.7716 16.9214 32.9532 17.1243 32.9532 17.279C32.9531 17.7071 31.5887 18.5402 29.0878 18.5402Z" fill="#8E6954"/>
<path d="M29.0876 3.83398C27.3923 3.83398 26.0131 5.21197 26.0131 6.90587C26.0131 8.59963 27.3923 9.97761 29.0876 9.97761C30.7829 9.97761 32.1621 8.5997 32.1621 6.90587C32.1621 5.21204 30.7829 3.83398 29.0876 3.83398ZM29.0877 8.9218C27.9749 8.9218 27.0698 8.01744 27.0698 6.9058C27.0698 5.79416 27.975 4.88972 29.0877 4.88972C30.2003 4.88972 31.1055 5.79409 31.1055 6.9058C31.1054 8.01744 30.2003 8.9218 29.0877 8.9218Z" fill="#8E6954"/>
<path d="M22.2335 16.751H21.9922C21.8166 16.751 21.6401 16.7626 21.4674 16.7856C21.1782 16.824 20.9749 17.0894 21.0133 17.3785C21.0487 17.6439 21.2756 17.8369 21.5364 17.8369C21.5597 17.8369 21.5832 17.8354 21.6068 17.8322C21.7334 17.8154 21.8631 17.8069 21.9923 17.8069H22.2335C22.5253 17.8069 22.7619 17.5706 22.7619 17.2789C22.7619 16.9873 22.5253 16.751 22.2335 16.751Z" fill="#8E6954"/>
<path d="M20.4873 32.5898C20.4865 32.5898 20.4857 32.5898 20.4849 32.5898L19.787 32.593C19.4953 32.5943 19.2598 32.8318 19.2611 33.1233C19.2623 33.414 19.4987 33.6488 19.7894 33.6488C19.7902 33.6488 19.791 33.6488 19.7918 33.6488L20.4896 33.6456C20.7814 33.6443 21.0169 33.4068 21.0156 33.1153C21.0144 32.8245 20.778 32.5898 20.4873 32.5898Z" fill="#8E6954"/>
<path d="M22.8604 23.5888H22.1626C21.8708 23.5888 21.6342 23.8252 21.6342 24.1168C21.6342 24.4083 21.8707 24.6447 22.1626 24.6447H22.8604C23.1523 24.6447 23.3888 24.4084 23.3888 24.1168C23.3888 23.8252 23.1523 23.5888 22.8604 23.5888Z" fill="#8E6954"/>
<path d="M20.0608 17.8271C19.863 17.6129 19.5288 17.5994 19.3142 17.797C19.1172 17.9785 18.938 18.1808 18.7817 18.3983C18.6114 18.6352 18.6656 18.9651 18.9026 19.1351C18.9959 19.2021 19.1037 19.2343 19.2105 19.2343C19.3748 19.2343 19.5368 19.1579 19.64 19.0143C19.7547 18.8547 19.8862 18.7062 20.0307 18.5731C20.2452 18.3754 20.2586 18.0414 20.0608 17.8271Z" fill="#8E6954"/>
<path d="M23.2788 32.5771C23.2779 32.5771 23.2771 32.5771 23.2763 32.5771L22.5785 32.5803C22.2868 32.5816 22.0513 32.8191 22.0526 33.1106C22.0538 33.4013 22.2902 33.6361 22.5809 33.6361C22.5817 33.6361 22.5825 33.6361 22.5833 33.6361L23.2811 33.6329C23.5729 33.6317 23.8083 33.3942 23.8071 33.1026C23.8057 32.8119 23.5694 32.5771 23.2788 32.5771Z" fill="#8E6954"/>
<path d="M17.6958 32.6025C17.695 32.6025 17.6942 32.6025 17.6934 32.6025L16.9955 32.6057C16.7038 32.607 16.4683 32.8445 16.4695 33.136C16.4709 33.4267 16.7071 33.6615 16.9979 33.6615C16.9987 33.6615 16.9995 33.6615 17.0003 33.6615L17.6982 33.6583C17.9899 33.657 18.2254 33.4195 18.2241 33.128C18.2229 32.8372 17.9866 32.6025 17.6958 32.6025Z" fill="#8E6954"/>
<path d="M20.4516 23.1452C20.2856 23.0405 20.1294 22.9183 19.9876 22.7821C19.7773 22.58 19.4427 22.5867 19.2405 22.7966C19.0382 23.0067 19.0447 23.3409 19.255 23.543C19.4484 23.7288 19.6613 23.8954 19.8877 24.0381C19.9753 24.0933 20.0728 24.1196 20.1692 24.1196C20.3446 24.1196 20.5161 24.0325 20.6166 23.8732C20.7724 23.6267 20.6984 23.3007 20.4516 23.1452Z" fill="#8E6954"/>
<path d="M19.1534 21.2545C19.118 21.0726 19.0999 20.8854 19.0999 20.6981L19.1001 20.6688C19.1035 20.3773 18.8697 20.1382 18.5779 20.1348C18.5759 20.1347 18.5737 20.1347 18.5716 20.1347C18.2827 20.1347 18.0468 20.3671 18.0434 20.6565L18.0432 20.6982C18.0432 20.9531 18.0677 21.2083 18.1162 21.4566C18.1653 21.7086 18.3864 21.8835 18.6342 21.8835C18.6676 21.8835 18.7017 21.8803 18.7357 21.8737C19.0222 21.8179 19.2092 21.5407 19.1534 21.2545Z" fill="#8E6954"/>
<path d="M25.6519 23.5888H24.9541C24.6623 23.5888 24.4257 23.8252 24.4257 24.1168C24.4257 24.4083 24.6623 24.6447 24.9541 24.6447H25.6519C25.9438 24.6447 26.1803 24.4084 26.1803 24.1168C26.1803 23.8252 25.9438 23.5888 25.6519 23.5888Z" fill="#8E6954"/>
<path d="M34.1352 24.6644C33.9316 24.5039 33.714 24.3581 33.4883 24.2312C33.2344 24.088 32.912 24.1779 32.7687 24.432C32.6255 24.6859 32.7154 25.008 32.9697 25.151C33.1477 25.2513 33.3196 25.3663 33.4803 25.4931C33.5774 25.5697 33.6926 25.6067 33.8073 25.6067C33.9634 25.6067 34.1181 25.5378 34.2224 25.4059C34.4033 25.1771 34.3643 24.845 34.1352 24.6644Z" fill="#8E6954"/>
<path d="M32.1745 32.9548C32.1344 32.666 31.8672 32.4639 31.5788 32.5041C31.4057 32.528 31.2285 32.5406 31.0518 32.5413L30.9529 32.5418C30.6611 32.5433 30.4257 32.7808 30.4271 33.0722C30.4286 33.3629 30.6648 33.5976 30.9554 33.5976C30.9563 33.5976 30.9572 33.5976 30.958 33.5976L31.0567 33.5971C31.2798 33.5961 31.5042 33.5803 31.7234 33.55C32.0126 33.5101 32.2145 33.2435 32.1745 32.9548Z" fill="#8E6954"/>
<path d="M34.5057 31.4705C34.3044 31.2593 33.9699 31.2512 33.7588 31.4523C33.6105 31.5935 33.45 31.7241 33.2818 31.8407C33.042 32.0068 32.9824 32.3357 33.1485 32.5754C33.2512 32.7232 33.4158 32.8026 33.5832 32.8026C33.6871 32.8026 33.792 32.772 33.8838 32.7085C34.0968 32.5609 34.2999 32.3955 34.4876 32.2169C34.699 32.0157 34.707 31.6815 34.5057 31.4705Z" fill="#8E6954"/>
<path d="M35.534 28.9066C35.2477 28.8527 34.9711 29.0412 34.9171 29.3277C34.8791 29.5286 34.8252 29.7279 34.7566 29.9203C34.6587 30.1948 34.802 30.4968 35.0769 30.5948C35.1355 30.6157 35.1955 30.6256 35.2544 30.6256C35.4714 30.6256 35.6749 30.4909 35.7521 30.2749C35.8391 30.0309 35.9076 29.778 35.9556 29.5231C36.0095 29.2366 35.8207 28.9605 35.534 28.9066Z" fill="#8E6954"/>
<path d="M35.8483 27.2097C35.7766 26.9605 35.6847 26.715 35.5748 26.4796C35.4514 26.2154 35.1372 26.1012 34.8725 26.2244C34.6081 26.3477 34.4938 26.6618 34.6171 26.926C34.7037 27.1113 34.7762 27.3048 34.8325 27.501C34.899 27.7325 35.1105 27.8834 35.3402 27.8834C35.3885 27.8834 35.4375 27.8767 35.4862 27.8628C35.7666 27.7823 35.9287 27.4899 35.8483 27.2097Z" fill="#8E6954"/>
<path d="M28.4435 23.5888H27.7456C27.4538 23.5888 27.2173 23.8252 27.2173 24.1168C27.2173 24.4083 27.4537 24.6447 27.7456 24.6447H28.4435C28.7353 24.6447 28.9718 24.4084 28.9718 24.1168C28.9718 23.8252 28.7353 23.5888 28.4435 23.5888Z" fill="#8E6954"/>
<path d="M26.0704 32.5644C26.0695 32.5644 26.0687 32.5644 26.0679 32.5644L25.3701 32.5676C25.0783 32.5689 24.8428 32.8064 24.8441 33.0979C24.8454 33.3886 25.0817 33.6234 25.3724 33.6234C25.3732 33.6234 25.374 33.6234 25.3748 33.6234L26.0727 33.6202C26.3644 33.6189 26.5999 33.3815 26.5986 33.0899C26.5974 32.7992 26.361 32.5644 26.0704 32.5644Z" fill="#8E6954"/>
<path d="M31.2583 23.5938C31.1835 23.5905 31.1078 23.5888 31.0334 23.5888H30.5371C30.2453 23.5888 30.0088 23.8252 30.0088 24.1168C30.0088 24.4083 30.2452 24.6447 30.5371 24.6447H31.0334C31.0931 24.6447 31.1525 24.6459 31.2115 24.6485C31.2195 24.6489 31.2274 24.6491 31.2353 24.6491C31.5163 24.6491 31.7503 24.4279 31.7627 24.1446C31.7756 23.8532 31.5498 23.6067 31.2583 23.5938Z" fill="#8E6954"/>
<path d="M28.8619 32.5517C28.861 32.5517 28.8602 32.5517 28.8594 32.5517L28.1616 32.5549C27.8698 32.5562 27.6343 32.7937 27.6356 33.0852C27.6369 33.3759 27.8733 33.6107 28.1639 33.6107C28.1647 33.6107 28.1656 33.6107 28.1664 33.6107L28.8642 33.6075C29.156 33.6062 29.3914 33.3688 29.3902 33.0772C29.3889 32.7864 29.1526 32.5517 28.8619 32.5517Z" fill="#8E6954"/>
</svg>
