<svg width="24" height="24" viewBox="0 0 24 24" fill="none" xmlns="http://www.w3.org/2000/svg">
<path d="M22.4657 14.9731C22.8104 14.6285 23.0003 14.1701 23.0003 13.6829C23.0003 13.4225 22.7884 13.2106 22.528 13.2106H15.6345L14.6527 12.3877L13.4568 6.71707C13.2431 5.70463 12.5474 4.85682 11.5958 4.44921L10.8194 4.11723C10.7588 4.09141 10.6975 4.06742 10.6356 4.04453C10.889 3.75998 11.0435 3.38515 11.0435 2.97497V1.6095C11.0435 0.721587 10.321 -0.000976562 9.43307 -0.000976562H9.14155C8.25345 -0.000976562 7.53089 0.721587 7.53089 1.6095V2.97497C7.53089 3.37452 7.67756 3.74038 7.91946 4.02219C7.84621 4.04783 7.7737 4.07548 7.70192 4.10551L6.91124 4.43694C5.92023 4.85224 5.21085 5.731 5.01382 6.78775L4.48811 9.60988C4.4524 9.80087 4.57838 9.98435 4.76919 10.0201C4.79098 10.0241 4.81277 10.0259 4.83401 10.0259C5.00009 10.0259 5.14786 9.90781 5.17936 9.73879L5.70507 6.91666C5.85852 6.09357 6.41116 5.40891 7.18298 5.08553L7.97366 4.75391C8.22214 4.64991 8.48235 4.57721 8.74804 4.53656C8.87402 4.56842 9.00568 4.58545 9.14155 4.58545H9.43307C9.55703 4.58545 9.67752 4.5708 9.79362 4.54425C10.0511 4.58765 10.3029 4.66108 10.5429 4.7638L11.3191 5.0956C12.0604 5.41312 12.6024 6.07361 12.7688 6.86227L13.9649 12.5338C13.9962 12.6854 14.079 12.8241 14.1984 12.9244L14.5399 13.2106H14.2248C13.7992 13.2106 13.4279 12.9228 13.3216 12.5104L12.092 7.73755C12.0397 7.53686 11.8524 7.41015 11.6462 7.4367C11.4403 7.46325 11.2909 7.633 11.2909 7.84065V11.4511H10.2745C10.2217 11.4357 10.1646 11.4322 10.1071 11.4438C10.097 11.4458 10.0875 11.4483 10.0778 11.4511H7.18463L7.0374 7.69196C7.03063 7.49529 6.87755 7.33525 6.68125 7.31969C6.48477 7.30412 6.30825 7.43853 6.27089 7.63116L5.33226 12.4197C5.24235 12.8781 4.83822 13.2106 4.37128 13.2106H3.92064L4.48335 12.7202C4.59157 12.6268 4.66554 12.4974 4.69155 12.356L4.90762 11.1966C4.94314 11.0056 4.81734 10.8221 4.62636 10.7866C4.43555 10.751 4.25189 10.8768 4.21637 11.0678L4.00451 12.2048L2.85071 13.2106H1.65389C1.52955 13.2106 1.412 13.2588 1.32264 13.3461C1.32081 13.3479 1.31898 13.3498 1.31714 13.3516C1.2298 13.441 1.18164 13.5585 1.18164 13.6829C1.18164 14.5636 1.81228 15.3029 2.64673 15.4713V23.2846H2.21604C2.02194 23.2846 1.86447 23.442 1.86447 23.6361C1.86447 23.8304 2.02194 23.9877 2.21604 23.9877H2.90766C2.93659 23.9956 2.96699 24.0002 2.99849 24.0002H21.1836C21.2151 24.0002 21.2455 23.9956 21.2744 23.9877H21.966C22.1603 23.9877 22.3176 23.8304 22.3176 23.6361C22.3176 23.442 22.1603 23.2846 21.966 23.2846H21.5352V15.4721C21.8855 15.4021 22.2077 15.2309 22.4657 14.9731ZM8.23404 2.97497V1.6095C8.23404 1.10924 8.6411 0.702177 9.14155 0.702177H9.43307C9.93333 0.702177 10.3404 1.10924 10.3404 1.6095V2.97497C10.3404 3.47524 9.93333 3.8823 9.43307 3.8823H9.14155C8.6411 3.8823 8.23404 3.47524 8.23404 2.97497ZM12.6408 12.6858C12.6903 12.8781 12.773 13.0546 12.8813 13.2106H12.3986L11.9941 11.7549V10.1757L12.6408 12.6858ZM11.3753 12.1544L12.1781 15.0438C12.1926 15.0956 12.2034 15.149 12.2113 15.2067C12.2188 15.2582 12.2226 15.3131 12.2226 15.3697V16.6337C11.6515 16.8478 11.0547 17.0034 10.4484 17.0961C10.4058 17.1027 10.3631 17.1087 10.3202 17.1148C10.0335 16.7612 9.59402 16.0906 9.66214 15.3662C9.70151 14.948 9.91319 14.4296 9.9152 14.4246C10.0108 14.1928 10.095 14.0557 10.1763 13.9233C10.2397 13.8202 10.3052 13.7134 10.3691 13.5752C10.5603 13.1615 10.6317 12.6849 10.5839 12.1544H11.3753ZM7.44739 23.2846C7.67976 23.1172 7.87551 22.9 8.01577 22.6475L8.50542 21.7653L8.5468 21.8718L7.98776 23.2846H7.44739ZM7.83175 20.033L8.17398 20.9132L7.40088 22.3062C7.23993 22.5961 6.96452 22.814 6.64554 22.9037L6.53824 22.9337L7.83175 20.033ZM8.7669 23.2267L9.25142 22.0024C9.28401 21.92 9.28438 21.8283 9.25233 21.7455L8.88904 20.8118C8.88886 20.8111 8.88867 20.8105 8.88831 20.81L8.18534 19.0021C8.18405 18.9988 8.18277 18.9955 8.18149 18.992L7.71785 17.7992C8.1077 17.8564 8.50121 17.8899 8.8949 17.8987L9.24592 19.1914C9.24611 19.1922 9.24629 19.1927 9.24647 19.1933L9.98186 21.9017C10.0027 22.0009 9.97545 22.1055 9.90861 22.1824L9.30855 22.8702C9.16224 23.0377 8.97437 23.16 8.7669 23.2267ZM9.62057 17.8873C9.70114 17.8831 9.78153 17.878 9.8621 17.8717L9.69693 18.1689L9.62057 17.8873ZM9.87766 12.1544C9.92564 12.5867 9.87657 12.9647 9.73081 13.2802C9.6843 13.3807 9.63467 13.4615 9.57718 13.555C9.4858 13.7039 9.38216 13.8726 9.26497 14.1569C9.23915 14.2199 9.01044 14.7876 8.9621 15.3003C8.92658 15.6793 8.96576 16.3755 9.50173 17.1895C9.38839 17.1944 9.27522 17.1975 9.16224 17.1981C8.52263 17.2021 7.88064 17.1364 7.25421 17.0025C7.24853 17.001 7.24267 16.9996 7.23681 16.9985C6.81529 16.908 6.39614 16.7853 5.99091 16.6339V15.4292C5.99091 15.358 5.99714 15.2867 6.00941 15.2173C6.02186 15.1479 6.03962 15.0807 6.06251 15.0174L7.09362 12.1544H9.87766ZM6.02241 12.5551L6.44064 10.4213L6.49264 11.7481L5.96583 13.2106H5.7384C5.87574 13.0194 5.9748 12.7975 6.02241 12.5551ZM1.90878 13.9138H5.71258L5.40129 14.7782C5.39818 14.7868 5.39543 14.7956 5.3925 14.8044H3.00013C2.46435 14.8015 2.01535 14.4192 1.90878 13.9138ZM3.34988 15.5076H5.28776V16.6464C5.28776 16.93 5.46538 17.1875 5.73034 17.2873C6.1125 17.4308 6.50619 17.5504 6.903 17.644L7.47321 19.1105L5.8924 22.6556C5.80011 22.863 5.81348 23.0936 5.92261 23.2846H3.34988V15.5076ZM9.88023 23.2846L10.4387 22.6444C10.6542 22.3968 10.7392 22.0584 10.6661 21.7391C10.665 21.7345 10.6639 21.7299 10.6627 21.7254L9.96116 19.1416L10.7269 17.7626C11.3263 17.6597 11.9161 17.5006 12.4823 17.2873C12.7474 17.1876 12.9258 16.9298 12.9258 16.6458V15.3695C12.9258 15.2791 12.9195 15.1902 12.9076 15.1088C12.8961 15.0232 12.8785 14.9383 12.8556 14.8557L12.594 13.9138H22.2735C22.2294 14.1253 22.1248 14.3194 21.9684 14.4757C21.7584 14.686 21.479 14.8026 21.1836 14.8044H14.406C14.2118 14.8044 14.0545 14.9617 14.0545 15.156C14.0545 15.3501 14.2118 15.5076 14.406 15.5076H20.832V23.2846H9.88023Z" fill="#B78131"/>
<path d="M15.9881 11.1316C16.1824 11.1316 16.3397 10.9742 16.3397 10.7801C16.3397 10.1549 16.5318 9.85754 16.7543 9.5131C17.0011 9.13076 17.2811 8.69733 17.2811 7.86489C17.2811 7.03246 17.0011 6.59903 16.7543 6.2165C16.649 6.05335 16.4313 6.00665 16.2681 6.11194C16.1051 6.21724 16.0582 6.43496 16.1635 6.59793C16.3858 6.94237 16.5779 7.23974 16.5779 7.86489C16.5779 8.48986 16.3858 8.78742 16.1635 9.13167C15.9165 9.5142 15.6367 9.94763 15.6367 10.7801C15.6365 10.9742 15.794 11.1316 15.9881 11.1316Z" fill="#B78131"/>
<path d="M15.9883 5.30076C16.1826 5.30076 16.3399 5.14346 16.3399 4.94918C16.3399 4.32403 16.532 4.02684 16.7544 3.6824C17.0013 3.30006 17.2813 2.86663 17.2813 2.0342C17.2813 1.83991 17.124 1.68262 16.9297 1.68262C16.7354 1.68262 16.5781 1.83991 16.5781 2.0342C16.5781 2.65934 16.386 2.95654 16.1637 3.30097C15.9167 3.68331 15.6367 4.11674 15.6367 4.94918C15.6367 5.14346 15.7942 5.30076 15.9883 5.30076Z" fill="#B78131"/>
<path d="M18.7012 11.1312C18.8955 11.1312 19.0528 10.9738 19.0528 10.7797C19.0528 10.1545 19.2449 9.85714 19.4673 9.51271C19.5278 9.41914 19.5902 9.32245 19.6503 9.21716C19.7464 9.04833 19.6874 8.83372 19.5188 8.73759C19.35 8.64145 19.1354 8.70023 19.0392 8.86906C18.9889 8.95733 18.9343 9.04192 18.8764 9.13128C18.6296 9.51381 18.3496 9.94724 18.3496 10.7797C18.3496 10.9738 18.5071 11.1312 18.7012 11.1312Z" fill="#B78131"/>
<path d="M19.291 7.86471C19.291 8.05881 19.4485 8.21629 19.6426 8.21629C19.8369 8.21629 19.9942 8.05881 19.9942 7.86471C19.9942 7.03209 19.7142 6.59866 19.4673 6.21632C19.2449 5.87189 19.0529 5.57451 19.0529 4.94936C19.0529 4.32421 19.2449 4.02684 19.4673 3.68258C19.7144 3.30006 19.9942 2.86663 19.9942 2.03438C19.9942 1.84009 19.8369 1.68262 19.6426 1.68262C19.4485 1.68262 19.291 1.84009 19.291 2.03438C19.291 2.65934 19.0989 2.95672 18.8766 3.30116C18.6296 3.6835 18.3496 4.11693 18.3496 4.94936C18.3496 5.7818 18.6296 6.21522 18.8766 6.59775C19.0989 6.94218 19.291 7.23956 19.291 7.86471Z" fill="#B78131"/>
<path d="M21.0371 10.7804C21.0371 10.9745 21.1946 11.132 21.3887 11.132C21.583 11.132 21.7404 10.9745 21.7404 10.7804C21.7404 10.1553 21.9324 9.85789 22.1548 9.51346C22.4019 9.13112 22.6817 8.69769 22.6817 7.86525C22.6817 7.03264 22.4019 6.59921 22.1548 6.21686C21.9324 5.87243 21.7404 5.57505 21.7404 4.9499C21.7404 4.73603 21.7626 4.54962 21.8086 4.37987C21.8593 4.19255 21.7483 3.99936 21.5608 3.94882C21.3737 3.8981 21.1805 4.00888 21.1298 4.19639C21.0675 4.42675 21.0371 4.67322 21.0371 4.9499C21.0371 5.78234 21.3171 6.21577 21.5641 6.59829C21.7864 6.94273 21.9785 7.23992 21.9785 7.86525C21.9785 8.4904 21.7864 8.78759 21.5641 9.13203C21.3171 9.51456 21.0371 9.94799 21.0371 10.7804Z" fill="#B78131"/>
<path d="M21.9401 3.40315C21.9907 3.42842 22.0445 3.44051 22.0974 3.44051C22.2261 3.44051 22.3503 3.36964 22.412 3.24659C22.5953 2.88164 22.6806 2.49637 22.6806 2.03438C22.6806 1.84009 22.5233 1.68262 22.3291 1.68262C22.1348 1.68262 21.9775 1.84009 21.9775 2.03438C21.9775 2.48685 21.8738 2.75127 21.7836 2.93108C21.6964 3.10468 21.7665 3.31599 21.9401 3.40315Z" fill="#B78131"/>
</svg>
