<svg width="16" height="16" viewBox="0 0 16 16" fill="none" xmlns="http://www.w3.org/2000/svg">
<path fill-rule="evenodd" clip-rule="evenodd" d="M7.9679 4.0322L7.12107 6.48516C6.9123 7.0899 6.34295 7.49566 5.70319 7.49566H3.11794L5.12967 8.87129C5.68753 9.25276 5.92141 9.96016 5.70087 10.599L4.90401 12.9072L7.12122 11.3911C7.63171 11.042 8.3041 11.042 8.81458 11.3911L11.0318 12.9072L10.2349 10.599C10.0144 9.96016 10.2483 9.25276 10.8061 8.87129L12.8179 7.49566H10.2326C9.59285 7.49566 9.0235 7.0899 8.81473 6.48516L7.9679 4.0322ZM8.44053 2.33684C8.28548 1.88772 7.65032 1.88772 7.49527 2.33684L6.17582 6.15883C6.10623 6.36041 5.91644 6.49566 5.70319 6.49566H1.50093C1.00926 6.49566 0.812851 7.13087 1.21871 7.4084L4.56521 9.69675C4.75117 9.82391 4.82913 10.0597 4.75561 10.2727L3.46524 14.0104C3.30803 14.4658 3.82243 14.8582 4.2201 14.5863L7.68567 12.2165C7.85584 12.1002 8.07997 12.1002 8.25013 12.2165L11.7157 14.5863C12.1134 14.8582 12.6278 14.4658 12.4706 14.0104L11.1802 10.2727C11.1067 10.0597 11.1846 9.82391 11.3706 9.69675L14.7171 7.4084C15.123 7.13087 14.9265 6.49566 14.4349 6.49566H10.2326C10.0194 6.49566 9.82958 6.36041 9.75999 6.15883L8.44053 2.33684Z" fill="#B78131"/>
</svg>
