<svg width="72" height="71" viewBox="0 0 72 71" fill="none" xmlns="http://www.w3.org/2000/svg">
<path d="M28.1112 46.8888C31.543 46.1753 33.5476 42.8795 33.5476 42.8795L34.0748 63.0282C34.0748 63.0282 32.1241 62.8545 30.5576 61.9749C29.4422 61.3486 28.3047 60.0396 27.3297 59.2907C24.9852 57.4898 21.3157 56.3686 20.1604 55.8929C19.0051 55.4172 16.253 53.0388 16.253 53.0388C16.253 53.0388 12.6174 49.7769 11.8359 46.1753C11.0544 42.5737 11.0884 39.9234 11.3602 38.9381C11.632 37.9527 13.3989 32.5163 14.9618 27.6575C16.5248 22.7987 15.6754 21.6775 15.6754 21.6775C15.6754 21.6775 14.8939 17.6341 10.9525 15.3237C7.01109 13.0132 2.69594 11.9599 2.69594 11.9599C2.69594 11.9599 1.77853 10.329 2.05035 8.73201C2.32217 7.13507 3.57934 6.69336 3.57934 6.69336C3.57934 6.69336 11.632 7.71269 16.4229 11.9599C21.2137 16.2071 21.1797 22.2551 21.2137 22.6288C21.2477 23.0026 21.6868 23.8181 24.5095 23.92C27.3323 24.0219 27.9752 22.6288 27.9752 22.6288L24.7134 29.6962C24.7134 29.6962 24.1018 29.0506 23.2863 28.8807C22.4709 28.7108 21.2817 28.9487 21.2817 28.9487C21.2817 28.9487 18.4955 29.6962 18.3936 36.6956C18.2916 43.6949 21.3157 44.8502 21.3157 44.8502C21.3157 44.8502 24.6795 47.6024 28.1112 46.8888Z" fill="url(#paint0_linear)"/>
<path d="M66.0833 50.5239C66.4571 52.2228 66.559 53.6159 66.3551 55.2468C66.1513 56.8778 65.1659 58.9504 64.0447 60.5813C62.9234 62.2122 60.2052 63.0277 60.2052 63.0277H47.0898V0.373047H56.0599C56.0599 0.373047 56.7038 0.513304 57.1132 1.32442C57.4109 1.91413 57.521 2.4117 57.521 3.53296C57.521 4.65422 55.6182 6.38708 55.6182 6.38708C55.6182 6.38708 54.2251 7.74618 53.7494 8.69755C53.2738 9.64892 53.9873 10.4644 53.9873 10.4644C53.9873 10.4644 54.7105 11.083 56.1958 12.1972C57.6699 13.303 59.631 14.5616 60.511 15.3232C62.2778 16.8522 65.1999 19.8762 65.9814 21.2693C66.7629 22.6623 68.6058 25.7915 69.3452 28.0648C69.8341 29.5679 69.9221 31.0703 69.7869 31.4625C69.4471 32.4479 68.7336 33.1954 68.3598 33.4332C67.9861 33.6711 65.7096 34.6904 64.0447 35.7437C62.3798 36.797 61.1566 39.1415 61.1566 39.1415C61.1566 39.1415 60.2052 41.6218 61.1566 43.3887C62.1079 45.1555 63.6029 46.0729 64.2485 46.7524C64.8941 47.432 65.7096 48.8251 66.0833 50.5239Z" fill="#A97456"/>
<path d="M28.1862 50.5239C27.8125 52.2228 27.7105 53.6159 27.9144 55.2468C28.1183 56.8778 29.1036 58.9504 30.2249 60.5813C31.3461 62.2122 34.0643 63.0277 34.0643 63.0277H47.1797V0.373047H38.2096C38.2096 0.373047 37.5657 0.513304 37.1563 1.32442C36.8586 1.91413 36.7486 2.4117 36.7486 3.53296C36.7486 4.65422 38.6513 6.38708 38.6513 6.38708C38.6513 6.38708 40.0444 7.74618 40.5201 8.69755C40.9958 9.64892 40.2822 10.4644 40.2822 10.4644C40.2822 10.4644 39.5591 11.083 38.0737 12.1972C36.5997 13.303 34.6386 14.5616 33.7585 15.3232C31.9917 16.8522 29.0696 19.8762 28.2882 21.2693C27.5067 22.6623 25.6638 25.7915 24.9244 28.0648C24.4355 29.5679 24.3474 31.0703 24.4827 31.4625C24.8224 32.4479 25.536 33.1954 25.9097 33.4332C26.2835 33.6711 28.56 34.6904 30.2249 35.7437C31.8898 36.797 33.113 39.1415 33.113 39.1415C33.113 39.1415 34.0643 41.6218 33.113 43.3887C32.1616 45.1555 30.6666 46.0729 30.021 46.7524C29.3754 47.432 28.56 48.8251 28.1862 50.5239Z" fill="#A97456"/>
<rect x="36.3164" y="0.015625" width="21.7456" height="6.23584" rx="3.11792" fill="url(#paint1_linear)"/>
<rect x="28.7734" y="60.6836" width="36.8317" height="4.41708" rx="2.20854" fill="url(#paint2_linear)"/>
<rect x="41.5488" y="69.9932" width="0.0679552" height="0.0679552" fill="#C4C4C4"/>
<path d="M46.6593 26.5719L40.4956 37.0816C39.2004 39.3035 39.1003 42.1287 40.4956 44.5078C42.5931 48.0842 47.2588 49.321 50.9168 47.2703C54.5748 45.2196 55.8399 40.658 53.7424 37.0816L47.5786 26.5719C47.375 26.2247 46.8629 26.2247 46.6593 26.5719Z" fill="url(#paint3_linear)"/>
<defs>
<linearGradient id="paint0_linear" x1="2.29339" y1="9.39767" x2="48.0849" y2="54.3333" gradientUnits="userSpaceOnUse">
<stop stop-color="#CF9D80"/>
<stop offset="1" stop-color="#CF9D80" stop-opacity="0.8"/>
</linearGradient>
<linearGradient id="paint1_linear" x1="36.5153" y1="0.314971" x2="38.1569" y2="10.1812" gradientUnits="userSpaceOnUse">
<stop stop-color="#CF9D80"/>
<stop offset="1" stop-color="#CF9D80" stop-opacity="0.8"/>
</linearGradient>
<linearGradient id="paint2_linear" x1="29.1103" y1="60.8956" x2="29.6077" y2="68.0431" gradientUnits="userSpaceOnUse">
<stop stop-color="#CF9D80"/>
<stop offset="1" stop-color="#CF9D80"/>
</linearGradient>
<linearGradient id="paint3_linear" x1="39.626" y1="27.3652" x2="57.1805" y2="48.4126" gradientUnits="userSpaceOnUse">
<stop stop-color="#CF9D80"/>
<stop offset="1" stop-color="#CF9D80" stop-opacity="0.8"/>
</linearGradient>
</defs>
</svg>
