<svg width="28" height="32" viewBox="0 0 28 32" fill="none" xmlns="http://www.w3.org/2000/svg">
<path fill-rule="evenodd" clip-rule="evenodd" d="M5.28952 1.5C5.42213 1.50001 5.5493 1.55269 5.64307 1.64647L8.2315 4.23523L7.52435 4.94229L5.29559 2.71325C0.121523 8.25953 0.237337 16.9517 5.64304 22.3572L5.64306 22.3572C11.0482 27.7626 19.7402 27.8784 25.2867 22.7046L23.0574 20.4755L23.7645 19.7684L26.3535 22.3571C26.4473 22.4509 26.5 22.5781 26.5 22.7107C26.5 22.8433 26.4473 22.9705 26.3535 23.0643C20.439 28.9786 10.8499 28.9786 4.93595 23.0643C-0.978649 17.15 -0.978649 7.56075 4.93595 1.64644C5.02972 1.55267 5.1569 1.49999 5.28952 1.5Z" fill="#8E6954"/>
<path fill-rule="evenodd" clip-rule="evenodd" d="M16 1.5C10.2218 1.5 5.5 6.40398 5.5 12.5C5.5 18.5966 10.2218 23.5 16 23.5C21.7782 23.5 26.5 18.5966 26.5 12.5C26.5 6.40398 21.7782 1.5 16 1.5ZM4.5 12.5C4.5 5.89407 9.62808 0.5 16 0.5C22.3719 0.5 27.5 5.89407 27.5 12.5C27.5 19.1066 22.3719 24.5 16 24.5C9.6281 24.5 4.5 19.1066 4.5 12.5Z" fill="#8E6954"/>
<path fill-rule="evenodd" clip-rule="evenodd" d="M15.5 31V28H16.5V31H15.5Z" fill="#8E6954"/>
<path fill-rule="evenodd" clip-rule="evenodd" d="M10.5 31C10.5 30.7239 10.7239 30.5 11 30.5H21C21.2761 30.5 21.5 30.7239 21.5 31C21.5 31.2761 21.2761 31.5 21 31.5H11C10.7239 31.5 10.5 31.2761 10.5 31Z" fill="#8E6954"/>
</svg>
