<svg width="50" height="15" viewBox="0 0 50 15" fill="none" xmlns="http://www.w3.org/2000/svg">
<path d="M17.9668 14.6068L20.4556 0.470703H24.3445L21.9334 14.6068H17.9668Z" fill="#3C58BF"/>
<path d="M17.9668 14.6068L21.1556 0.470703H24.3445L21.9334 14.6068H17.9668Z" fill="#293688"/>
<path d="M36.0112 0.62827C35.2334 0.314135 33.989 0 32.4334 0C28.5446 0 25.7446 1.96335 25.7446 4.79057C25.7446 6.91098 27.6891 8.01046 29.2446 8.71726C30.8001 9.42406 31.2668 9.89527 31.2668 10.5235C31.2668 11.4659 30.0224 11.9372 28.9335 11.9372C27.3779 11.9372 26.5224 11.7015 25.2002 11.1518L24.6558 10.9162L24.1113 14.1361C25.0446 14.5288 26.7557 14.9214 28.5446 14.9214C32.6668 14.9214 35.3889 12.9581 35.3889 9.9738C35.3889 8.32459 34.3778 7.06805 32.0445 6.04711C30.6446 5.3403 29.789 4.94763 29.789 4.24083C29.789 3.61256 30.489 2.98429 32.0445 2.98429C33.3667 2.98429 34.3001 3.21989 35.0001 3.53402L35.3889 3.69109L36.0112 0.62827Z" fill="#3C58BF"/>
<path d="M36.0112 0.62827C35.2334 0.314135 33.989 0 32.4334 0C28.5446 0 26.4446 1.96335 26.4446 4.79057C26.4446 6.91098 27.6891 8.01046 29.2446 8.71726C30.8001 9.42406 31.2668 9.89527 31.2668 10.5235C31.2668 11.4659 30.0224 11.9372 28.9335 11.9372C27.3779 11.9372 26.5224 11.7015 25.2002 11.1518L24.6558 10.9162L24.1113 14.1361C25.0446 14.5288 26.7557 14.9214 28.5446 14.9214C32.6668 14.9214 35.3889 12.9581 35.3889 9.9738C35.3889 8.32459 34.3778 7.06805 32.0445 6.04711C30.6446 5.3403 29.789 4.94763 29.789 4.24083C29.789 3.61256 30.489 2.98429 32.0445 2.98429C33.3667 2.98429 34.3001 3.21989 35.0001 3.53402L35.3889 3.69109L36.0112 0.62827Z" fill="#293688"/>
<path d="M42.6992 0.470703C41.7659 0.470703 41.0659 0.549238 40.677 1.49164L34.8438 14.6068H39.0437L39.8215 12.2508H44.7992L45.2658 14.6068H48.9991L45.7325 0.470703H42.6992ZM40.9103 9.89477C41.1437 9.18796 42.4659 5.73247 42.4659 5.73247C42.4659 5.73247 42.777 4.8686 43.0103 4.31886L43.2436 5.65394C43.2436 5.65394 44.0214 9.18797 44.1769 9.9733H40.9103V9.89477Z" fill="#3C58BF"/>
<path d="M43.6325 0.470703C42.6992 0.470703 41.9992 0.549238 41.6103 1.49164L34.8438 14.6068H39.0437L39.8215 12.2508H44.7992L45.2658 14.6068H48.9991L45.7325 0.470703H43.6325ZM40.9103 9.89477C41.2214 9.10943 42.4659 5.73247 42.4659 5.73247C42.4659 5.73247 42.777 4.8686 43.0103 4.31886L43.2436 5.65394C43.2436 5.65394 44.0214 9.18797 44.1769 9.9733H40.9103V9.89477Z" fill="#293688"/>
<path d="M10.8098 10.3665L10.4209 8.32465C9.72094 5.96864 7.46541 3.37702 4.97656 2.12048L8.47651 14.6859H12.6764L18.9764 0.549805H14.7764L10.8098 10.3665Z" fill="#3C58BF"/>
<path d="M10.8098 10.3665L10.4209 8.32465C9.72094 5.96864 7.46541 3.37702 4.97656 2.12048L8.47651 14.6859H12.6764L18.9764 0.549805H15.5542L10.8098 10.3665Z" fill="#293688"/>
<path d="M0 0.470703L0.69999 0.627771C5.6777 1.80578 9.09987 4.79006 10.4221 8.32408L9.02209 1.64871C8.78876 0.706305 8.08877 0.470703 7.23323 0.470703H0Z" fill="#FFBC00"/>
<path d="M0 0.470703C4.97771 1.64871 9.09987 4.71154 10.4221 8.24556L9.09987 2.66965C8.86654 1.72725 8.08877 1.17751 7.23323 1.17751L0 0.470703Z" fill="#F7981D"/>
<path d="M0 0.470703C4.97771 1.64871 9.09987 4.71154 10.4221 8.24556L9.48875 5.18274C9.25542 4.24033 8.94432 3.29792 7.85544 2.90525L0 0.470703Z" fill="#ED7C00"/>
<path d="M14.7009 9.89538L12.0565 7.22523L10.8121 10.2095L10.501 8.24617C9.80101 5.89015 7.54549 3.29853 5.05664 2.04199L8.55659 14.6074H12.7565L14.7009 9.89538Z" fill="#051244"/>
<path d="M21.9354 14.6078L18.591 11.1523L17.9688 14.6078H21.9354Z" fill="#051244"/>
<path d="M30.8779 9.73828C31.189 10.0524 31.3446 10.288 31.2668 10.6022C31.2668 11.5446 30.0224 12.0158 28.9335 12.0158C27.3779 12.0158 26.5224 11.7802 25.2002 11.2304L24.6558 10.9948L24.1113 14.2147C25.0446 14.6074 26.7557 15 28.5446 15C31.0335 15 33.0556 14.2932 34.2223 13.0367L30.8779 9.73828Z" fill="#051244"/>
<path d="M35.3906 14.6073H39.0461L39.8239 12.2513H44.8016L45.2683 14.6073H49.0015L47.6793 8.8743L43.0127 4.31934L43.2461 5.57588C43.2461 5.57588 44.0238 9.1099 44.1794 9.89524H40.9128C41.2239 9.1099 42.4683 5.73294 42.4683 5.73294C42.4683 5.73294 42.7794 4.86907 43.0127 4.31934" fill="#051244"/>
</svg>
