<svg width="23" height="27" viewBox="0 0 23 27" fill="none" xmlns="http://www.w3.org/2000/svg">
<path d="M13.2312 18.6579C9.94986 16.8808 7.44982 13.8762 6.36914 10.2715" stroke="#9B989B" stroke-linecap="round" stroke-linejoin="round"/>
<path d="M13.2315 18.5286C13.9708 18.464 15.3735 17.1187 16.1128 17.0541C16.8392 16.9906 17.5618 17.201 18.1358 17.6442C18.9655 18.2849 20.0753 19.1421 20.0844 19.1484C20.0904 19.1531 20.6547 19.589 21.2664 20.0614C22.1053 20.7088 22.2458 21.9067 21.5787 22.7255L19.3193 25.6827C19.1535 25.8994 18.8842 26.0218 18.6096 25.9968C8.80598 25.1083 1 16.9786 1 7.11148C1 5.3344 1.24984 3.61462 1.71668 1.9839C1.76461 1.81619 1.90514 1.68859 2.07852 1.65057L6.36947 1.03963C7.413 0.826614 8.43283 1.4938 8.6369 2.524C8.78605 3.27608 8.9239 3.96931 8.92498 3.9766C8.92713 3.98701 9.19797 5.35107 9.39989 6.36981C9.53989 7.07502 9.40151 7.8047 9.01436 8.41303C8.61967 9.03282 6.76631 9.65209 6.37162 10.2714" stroke="#9B989B" stroke-linecap="round" stroke-linejoin="round"/>
</svg>
