<svg width="24" height="24" viewBox="0 0 24 24" fill="none" xmlns="http://www.w3.org/2000/svg">
<path d="M7.5 2.625C7.79809 2.62589 8.08373 2.7447 8.29451 2.95549C8.5053 3.16627 8.62411 3.45191 8.625 3.75V6.375H15.375V3.75C15.375 3.65054 15.3355 3.55516 15.2652 3.48484C15.1948 3.41451 15.0995 3.375 15 3.375C14.9005 3.375 14.8052 3.41451 14.7348 3.48484C14.6645 3.55516 14.625 3.65054 14.625 3.75V4.875H13.875V3.75C13.875 3.45163 13.9935 3.16548 14.2045 2.9545C14.4155 2.74353 14.7016 2.625 15 2.625C15.2984 2.625 15.5845 2.74353 15.7955 2.9545C16.0065 3.16548 16.125 3.45163 16.125 3.75V14.625H15.375V12.375H8.625V14.625H7.875V3.75C7.875 3.65054 7.83549 3.55516 7.76517 3.48484C7.69484 3.41451 7.59946 3.375 7.5 3.375C7.40054 3.375 7.30516 3.41451 7.23483 3.48484C7.16451 3.55516 7.125 3.65054 7.125 3.75V4.875H6.375V3.75C6.37589 3.45191 6.4947 3.16627 6.70549 2.95549C6.91627 2.7447 7.20191 2.62589 7.5 2.625ZM8.625 11.625H15.375V9.75H8.625V11.625ZM8.625 9H15.375V7.125H8.625V9Z" fill="#B78131"/>
<path d="M7.125 12H0.75V12.75H7.125V12Z" fill="#B78131"/>
<path d="M23.25 12H16.875V12.75H23.25V12Z" fill="#B78131"/>
<path d="M1.725 16.6196C1.89668 16.3741 2.12504 16.1737 2.39071 16.0353C2.65638 15.8969 2.95151 15.8247 3.25106 15.8247C3.55062 15.8247 3.84575 15.8969 4.11142 16.0353C4.37708 16.1737 4.60545 16.3741 4.77712 16.6196C5.07712 16.9417 5.29163 17.1746 5.75212 17.1746C6.21263 17.1746 6.42712 16.9421 6.72713 16.6196C6.89854 16.3741 7.12671 16.1736 7.39223 16.0351C7.65776 15.8966 7.95279 15.8243 8.25225 15.8243C8.55171 15.8243 8.84674 15.8966 9.11226 16.0351C9.37779 16.1736 9.60596 16.3741 9.77738 16.6196C10.0751 16.9417 10.2904 17.1742 10.7524 17.1742C11.2144 17.1742 11.4274 16.9417 11.7274 16.6192C11.8988 16.3738 12.127 16.1733 12.3924 16.0349C12.6579 15.8965 12.9529 15.8242 13.2523 15.8242C13.5517 15.8242 13.8467 15.8965 14.1122 16.0349C14.3777 16.1733 14.6058 16.3738 14.7773 16.6192C15.0754 16.9417 15.2906 17.1742 15.7523 17.1742C16.2139 17.1742 16.4273 16.9417 16.7273 16.6192C16.9037 16.379 17.1329 16.1824 17.3973 16.0446C17.6616 15.9068 17.954 15.8314 18.252 15.8242C18.5499 15.8315 18.8423 15.9069 19.1065 16.0447C19.3708 16.1825 19.5999 16.3791 19.7764 16.6192C20.0745 16.9417 20.2898 17.1742 20.7514 17.1742C21.213 17.1742 21.4264 16.9417 21.7264 16.6192C21.9028 16.3792 22.1318 16.1828 22.3959 16.0451C22.6601 15.9073 22.9522 15.8319 23.25 15.8246V16.5746C22.7891 16.5746 22.575 16.8071 22.275 17.1296C22.0987 17.3697 21.8697 17.5661 21.6057 17.7039C21.3416 17.8417 21.0495 17.9172 20.7517 17.9246C20.4537 17.9175 20.1613 17.8421 19.897 17.7043C19.6327 17.5664 19.4035 17.3699 19.227 17.1296C18.9293 16.8071 18.7136 16.5746 18.252 16.5746C17.7904 16.5746 17.577 16.8071 17.277 17.1292C17.1007 17.3694 16.8717 17.566 16.6075 17.7039C16.3434 17.8417 16.0512 17.9173 15.7534 17.9246C15.4554 17.9175 15.163 17.8421 14.8986 17.7043C14.6343 17.5664 14.4051 17.3699 14.2286 17.1296C13.9286 16.8071 13.7153 16.5746 13.2536 16.5746C12.792 16.5746 12.5786 16.8071 12.2786 17.1296C12.1073 17.3751 11.8792 17.5756 11.6138 17.714C11.3483 17.8524 11.0534 17.9247 10.7541 17.9247C10.4547 17.9247 10.1598 17.8524 9.89435 17.714C9.62893 17.5756 9.40084 17.3751 9.2295 17.1296C8.9295 16.8071 8.71613 16.5746 8.2545 16.5746C7.79288 16.5746 7.5795 16.8071 7.2795 17.1296C7.10786 17.3751 6.87954 17.5755 6.6139 17.7139C6.34826 17.8523 6.05315 17.9246 5.75362 17.9246C5.4541 17.9246 5.15899 17.8523 4.89335 17.7139C4.62771 17.5755 4.39939 17.3751 4.22775 17.1296C3.92775 16.8075 3.71325 16.5746 3.25275 16.5746C2.79225 16.5746 2.57512 16.8071 2.27775 17.1296C2.10083 17.3701 1.87111 17.5668 1.60626 17.7047C1.34141 17.8425 1.04848 17.9177 0.75 17.9246V17.1746C1.212 17.1746 1.428 16.9417 1.725 16.6196Z" fill="#B78131"/>
<path d="M1.725 19.2446C1.89668 18.9991 2.12504 18.7987 2.39071 18.6603C2.65638 18.5219 2.95151 18.4497 3.25106 18.4497C3.55062 18.4497 3.84575 18.5219 4.11142 18.6603C4.37708 18.7987 4.60545 18.9991 4.77712 19.2446C5.07712 19.5667 5.29163 19.7996 5.75212 19.7996C6.21263 19.7996 6.42712 19.5671 6.72713 19.2446C6.89854 18.9991 7.12671 18.7986 7.39223 18.6601C7.65776 18.5216 7.95279 18.4493 8.25225 18.4493C8.55171 18.4493 8.84674 18.5216 9.11226 18.6601C9.37779 18.7986 9.60596 18.9991 9.77738 19.2446C10.0751 19.5667 10.2904 19.7992 10.7524 19.7992C11.2144 19.7992 11.4274 19.5667 11.7274 19.2442C11.8988 18.9988 12.127 18.7983 12.3924 18.6599C12.6579 18.5215 12.9529 18.4492 13.2523 18.4492C13.5517 18.4492 13.8467 18.5215 14.1122 18.6599C14.3777 18.7983 14.6058 18.9988 14.7773 19.2442C15.0754 19.5667 15.2906 19.7992 15.7523 19.7992C16.2139 19.7992 16.4273 19.5667 16.7273 19.2442C16.9037 19.004 17.1329 18.8074 17.3973 18.6696C17.6616 18.5318 17.954 18.4564 18.252 18.4492C18.5499 18.4565 18.8423 18.5319 19.1065 18.6697C19.3708 18.8075 19.5999 19.0041 19.7764 19.2442C20.0745 19.5667 20.2898 19.7992 20.7514 19.7992C21.213 19.7992 21.4264 19.5667 21.7264 19.2442C21.9028 19.0042 22.1318 18.8078 22.3959 18.6701C22.6601 18.5323 22.9522 18.4569 23.25 18.4496V19.1996C22.7891 19.1996 22.575 19.4321 22.275 19.7546C22.0987 19.9947 21.8697 20.1911 21.6057 20.3289C21.3416 20.4667 21.0495 20.5422 20.7517 20.5496C20.4537 20.5425 20.1613 20.4671 19.897 20.3293C19.6327 20.1914 19.4035 19.9949 19.227 19.7546C18.9293 19.4321 18.7136 19.1996 18.252 19.1996C17.7904 19.1996 17.577 19.4321 17.277 19.7542C17.1007 19.9944 16.8717 20.191 16.6075 20.3289C16.3434 20.4667 16.0512 20.5423 15.7534 20.5496C15.4554 20.5425 15.163 20.4671 14.8986 20.3293C14.6343 20.1914 14.4051 19.9949 14.2286 19.7546C13.9286 19.4321 13.7153 19.1996 13.2536 19.1996C12.792 19.1996 12.5786 19.4321 12.2786 19.7546C12.1073 20.0001 11.8792 20.2006 11.6138 20.339C11.3483 20.4774 11.0534 20.5497 10.7541 20.5497C10.4547 20.5497 10.1598 20.4774 9.89435 20.339C9.62893 20.2006 9.40084 20.0001 9.2295 19.7546C8.9295 19.4321 8.71613 19.1996 8.2545 19.1996C7.79288 19.1996 7.5795 19.4321 7.2795 19.7546C7.10786 20.0001 6.87954 20.2005 6.6139 20.3389C6.34826 20.4773 6.05315 20.5496 5.75362 20.5496C5.4541 20.5496 5.15899 20.4773 4.89335 20.3389C4.62771 20.2005 4.39939 20.0001 4.22775 19.7546C3.92775 19.4325 3.71325 19.1996 3.25275 19.1996C2.79225 19.1996 2.57512 19.4321 2.27775 19.7546C2.10083 19.9951 1.87111 20.1918 1.60626 20.3297C1.34141 20.4675 1.04848 20.5427 0.75 20.5496V19.7996C1.212 19.7996 1.428 19.5667 1.725 19.2446Z" fill="#B78131"/>
<path d="M1.725 21.8696C1.89668 21.6241 2.12504 21.4237 2.39071 21.2853C2.65638 21.1469 2.95151 21.0747 3.25106 21.0747C3.55062 21.0747 3.84575 21.1469 4.11142 21.2853C4.37708 21.4237 4.60545 21.6241 4.77712 21.8696C5.07712 22.1917 5.29163 22.4246 5.75212 22.4246C6.21263 22.4246 6.42712 22.1921 6.72713 21.8696C6.89854 21.6241 7.12671 21.4236 7.39223 21.2851C7.65776 21.1466 7.95279 21.0743 8.25225 21.0743C8.55171 21.0743 8.84674 21.1466 9.11226 21.2851C9.37779 21.4236 9.60596 21.6241 9.77738 21.8696C10.0751 22.1917 10.2904 22.4242 10.7524 22.4242C11.2144 22.4242 11.4274 22.1917 11.7274 21.8692C11.8988 21.6238 12.127 21.4233 12.3924 21.2849C12.6579 21.1465 12.9529 21.0742 13.2523 21.0742C13.5517 21.0742 13.8467 21.1465 14.1122 21.2849C14.3777 21.4233 14.6058 21.6238 14.7773 21.8692C15.0754 22.1917 15.2906 22.4242 15.7523 22.4242C16.2139 22.4242 16.4273 22.1917 16.7273 21.8692C16.9037 21.629 17.1329 21.4324 17.3973 21.2946C17.6616 21.1568 17.954 21.0814 18.252 21.0742C18.5499 21.0815 18.8423 21.1569 19.1065 21.2947C19.3708 21.4325 19.5999 21.6291 19.7764 21.8692C20.0745 22.1917 20.2898 22.4242 20.7514 22.4242C21.213 22.4242 21.4264 22.1917 21.7264 21.8692C21.9028 21.6292 22.1318 21.4328 22.3959 21.2951C22.6601 21.1573 22.9522 21.0819 23.25 21.0746V21.8246C22.7891 21.8246 22.575 22.0571 22.275 22.3796C22.0987 22.6197 21.8697 22.8161 21.6057 22.9539C21.3416 23.0917 21.0495 23.1672 20.7517 23.1746C20.4537 23.1675 20.1613 23.0921 19.897 22.9543C19.6327 22.8164 19.4035 22.6199 19.227 22.3796C18.9293 22.0571 18.7136 21.8246 18.252 21.8246C17.7904 21.8246 17.577 22.0571 17.277 22.3792C17.1007 22.6194 16.8717 22.816 16.6075 22.9539C16.3434 23.0917 16.0512 23.1673 15.7534 23.1746C15.4554 23.1675 15.163 23.0921 14.8986 22.9543C14.6343 22.8164 14.4051 22.6199 14.2286 22.3796C13.9286 22.0571 13.7153 21.8246 13.2536 21.8246C12.792 21.8246 12.5786 22.0571 12.2786 22.3796C12.1073 22.6251 11.8792 22.8256 11.6138 22.964C11.3483 23.1024 11.0534 23.1747 10.7541 23.1747C10.4547 23.1747 10.1598 23.1024 9.89435 22.964C9.62893 22.8256 9.40084 22.6251 9.2295 22.3796C8.9295 22.0571 8.71613 21.8246 8.2545 21.8246C7.79288 21.8246 7.5795 22.0571 7.2795 22.3796C7.10786 22.6251 6.87954 22.8255 6.6139 22.9639C6.34826 23.1023 6.05315 23.1746 5.75362 23.1746C5.4541 23.1746 5.15899 23.1023 4.89335 22.9639C4.62771 22.8255 4.39939 22.6251 4.22775 22.3796C3.92775 22.0575 3.71325 21.8246 3.25275 21.8246C2.79225 21.8246 2.57512 22.0571 2.27775 22.3796C2.10083 22.6201 1.87111 22.8168 1.60626 22.9547C1.34141 23.0925 1.04848 23.1677 0.75 23.1746V22.4246C1.212 22.4246 1.428 22.1917 1.725 21.8696Z" fill="#B78131"/>
</svg>
