<svg width="18" height="18" viewBox="0 0 18 18" fill="none" xmlns="http://www.w3.org/2000/svg">
<path d="M0 9C0 13.9706 4.02944 18 9 18C13.9706 18 18 13.9706 18 9C18 4.02944 13.9706 0 9 0C4.02944 0 0 4.02944 0 9Z" fill="#7D3DAF"/>
<path d="M14.693 5.8025L14.6895 5.78828C14.4019 4.62589 13.1056 3.37857 11.9152 3.11908L11.9018 3.11631C9.97629 2.74899 8.02395 2.74899 6.09887 3.11631L6.08505 3.11908C4.895 3.37857 3.59871 4.62589 3.31078 5.78828L3.30762 5.8025C2.95215 7.42583 2.95215 9.07206 3.30762 10.6954L3.31078 10.7096C3.58643 11.8224 4.78619 13.0124 5.93219 13.3397V14.6372C5.93219 15.1068 6.50451 15.3375 6.82996 14.9986L8.14462 13.6321C8.42975 13.648 8.71503 13.6569 9.00032 13.6569C9.96958 13.6569 10.9392 13.5653 11.9018 13.3816L11.9152 13.3789C13.1056 13.1194 14.4019 11.872 14.6895 10.7096L14.693 10.6954C15.0485 9.07206 15.0485 7.42583 14.693 5.8025ZM13.6527 10.46C13.4607 11.2183 12.4764 12.1611 11.6944 12.3353C10.6706 12.53 9.63871 12.6132 8.60784 12.5846C8.58734 12.5841 8.56763 12.592 8.55333 12.6067C8.40704 12.7569 7.59344 13.5921 7.59344 13.5921L6.57244 14.64C6.49779 14.7178 6.36666 14.6648 6.36666 14.5574V12.4079C6.36666 12.3724 6.3413 12.3422 6.30643 12.3354C6.30623 12.3353 6.30603 12.3353 6.30584 12.3353C5.5238 12.1611 4.53993 11.2183 4.34758 10.4599C4.02765 8.99263 4.02765 7.50518 4.34758 6.03786C4.53993 5.27952 5.5238 4.33673 6.30584 4.16255C8.09386 3.82248 9.90678 3.82248 11.6944 4.16255C12.4768 4.33673 13.4607 5.27952 13.6527 6.03786C13.973 7.50522 13.973 8.99267 13.6527 10.46Z" fill="white"/>
<path d="M10.7023 11.4524C10.582 11.4159 10.4675 11.3914 10.3611 11.3472C9.25846 10.8898 8.2437 10.2996 7.4399 9.39494C6.9828 8.88049 6.62503 8.29969 6.3226 7.68504C6.17919 7.39355 6.05833 7.09065 5.93514 6.78972C5.82281 6.5153 5.98826 6.23179 6.16248 6.02502C6.32596 5.83097 6.53632 5.68247 6.76414 5.57302C6.94196 5.48759 7.11736 5.53684 7.24723 5.68756C7.52798 6.01341 7.78585 6.35593 7.99467 6.73364C8.12308 6.96596 8.08785 7.24994 7.85513 7.40805C7.79857 7.44648 7.74703 7.49158 7.69434 7.53499C7.64813 7.57303 7.60464 7.61146 7.57296 7.66296C7.51506 7.7572 7.5123 7.86834 7.54958 7.9708C7.83657 8.75947 8.32029 9.37274 9.1141 9.70306C9.24112 9.7559 9.3687 9.81744 9.51503 9.80038C9.76011 9.77174 9.83946 9.50293 10.0112 9.36247C10.1791 9.22522 10.3936 9.22341 10.5744 9.33783C10.7552 9.45229 10.9306 9.57517 11.1048 9.69934C11.2759 9.82123 11.4462 9.94047 11.604 10.0794C11.7557 10.213 11.808 10.3883 11.7225 10.5697C11.5661 10.9017 11.3385 11.178 11.0102 11.3544C10.9175 11.4041 10.8068 11.4202 10.7023 11.4524C10.582 11.4159 10.8068 11.4202 10.7023 11.4524Z" fill="white"/>
<path d="M9.00416 5.19298C10.4464 5.23339 11.6309 6.19052 11.8848 7.61636C11.928 7.85931 11.9434 8.10771 11.9627 8.35429C11.9708 8.458 11.912 8.55655 11.8001 8.55789C11.6845 8.55928 11.6325 8.46255 11.625 8.35887C11.6101 8.15364 11.5998 7.94751 11.5715 7.74398C11.4222 6.66962 10.5655 5.78078 9.49617 5.59005C9.33526 5.56133 9.17056 5.55379 9.00755 5.53669C8.90451 5.52586 8.76955 5.51962 8.74672 5.39153C8.72756 5.28414 8.81821 5.19863 8.92046 5.19314C8.94827 5.1916 8.97623 5.19286 9.00416 5.19298C10.4464 5.23339 8.97623 5.19286 9.00416 5.19298Z" fill="white"/>
<path d="M11.1947 8.03394C11.1923 8.05195 11.1911 8.09429 11.1805 8.13418C11.1422 8.27898 10.9227 8.29711 10.8722 8.15097C10.8572 8.1076 10.8549 8.05827 10.8549 8.01158C10.8543 7.70611 10.7879 7.40096 10.6339 7.13518C10.4756 6.86202 10.2336 6.63239 9.9499 6.49344C9.77833 6.40943 9.59277 6.35721 9.40473 6.32609C9.32254 6.3125 9.23948 6.30425 9.15689 6.29275C9.0568 6.27885 9.00336 6.21506 9.0081 6.11644C9.01253 6.02402 9.08007 5.95754 9.18078 5.96323C9.51177 5.98203 9.83145 6.05356 10.1257 6.20938C10.7241 6.52626 11.0659 7.02645 11.1657 7.69434C11.1702 7.7246 11.1774 7.75458 11.1797 7.78495C11.1854 7.85996 11.1889 7.93504 11.1947 8.03394C11.1923 8.05195 11.1889 7.93504 11.1947 8.03394Z" fill="white"/>
<path d="M10.2973 7.99896C10.1766 8.00113 10.1121 7.93434 10.0996 7.82371C10.091 7.74658 10.0841 7.66841 10.0657 7.59337C10.0295 7.44557 9.95091 7.30859 9.82658 7.21803C9.76788 7.17525 9.70137 7.14409 9.6317 7.12398C9.54319 7.09843 9.45128 7.10546 9.36296 7.08381C9.26706 7.06031 9.21402 6.98266 9.2291 6.89269C9.24281 6.81081 9.32248 6.7469 9.41194 6.75338C9.9711 6.79375 10.3707 7.08283 10.4278 7.74109C10.4318 7.78753 10.4365 7.83663 10.4262 7.88106C10.4086 7.95713 10.3522 7.99525 10.2973 7.99896C10.1766 8.00113 10.3522 7.99525 10.2973 7.99896Z" fill="white"/>
</svg>
