<svg width="33" height="33" viewBox="0 0 33 33" fill="none" xmlns="http://www.w3.org/2000/svg">
<g clip-path="url(#clip0)">
<path d="M32.8467 29.9596L25.9104 18.686C25.7207 18.3778 25.3914 18.1938 25.0295 18.1938C24.6677 18.1938 24.3384 18.3779 24.1489 18.686L23.2483 20.1497C23.1082 20.3774 23.1792 20.6756 23.4069 20.8157C23.6348 20.9558 23.9329 20.8848 24.0731 20.6571L24.9736 19.1934C24.9784 19.1857 24.9929 19.1621 25.0297 19.1621C25.0665 19.1621 25.081 19.1857 25.0858 19.1934L32.0221 30.4669C32.0277 30.4759 32.0424 30.4998 32.0235 30.5335C32.0047 30.5672 31.9766 30.5672 31.9661 30.5672H28.1246L17.3808 13.1057C17.2843 12.9488 17.1515 12.8244 16.9967 12.7398C16.9969 12.7398 16.9971 12.74 16.9973 12.74V9.4542C17.4002 9.56345 17.7926 9.61011 18.1766 9.61011C19.2808 9.61011 20.3148 9.22629 21.3264 8.85079C22.7281 8.33046 24.0521 7.839 25.4841 8.41328C25.6688 8.48734 25.8775 8.46504 26.0423 8.35353C26.2074 8.2419 26.3058 8.05634 26.3058 7.85718V2.38788C26.3058 2.14683 26.1628 1.9302 25.9417 1.8361C24.1239 1.06092 22.5304 1.65234 20.9894 2.2243C19.5457 2.76016 18.1822 3.26631 16.6976 2.60277C16.5477 2.5358 16.3743 2.54934 16.2366 2.63854C16.0989 2.72781 16.0158 2.88069 16.0158 3.04479V3.06277C16.0075 3.0988 16.0028 3.13612 16.0028 3.17466V12.74C15.8483 12.8246 15.7156 12.949 15.6192 13.1057L10.5184 21.3959L8.85116 18.6861C8.66154 18.3779 8.33225 18.1938 7.97035 18.1938C7.60851 18.1938 7.27922 18.3779 7.0896 18.6861L0.153216 29.9596C-0.0429152 30.2783 -0.0512941 30.6793 0.131237 31.006C0.313768 31.3327 0.659688 31.5356 1.03397 31.5356H31.966C32.3403 31.5356 32.6862 31.3327 32.8687 31.006C33.0513 30.6793 33.0429 30.2782 32.8467 29.9596ZM16.9842 3.73218C18.5515 4.16208 19.9592 3.63956 21.3264 3.13206C22.6789 2.62997 23.9604 2.15443 25.3376 2.63951V7.34362C23.7656 6.91255 22.3564 7.43566 20.9894 7.94303C19.6391 8.44422 18.3589 8.91943 16.9842 8.43584V3.73218ZM6.01233 30.5673L7.67335 27.8677C7.81347 27.64 7.74244 27.3417 7.51473 27.2016C7.28695 27.0616 6.98879 27.1325 6.84867 27.3602L4.87544 30.5673H1.03403C1.02346 30.5673 0.99536 30.5673 0.97654 30.5336C0.95772 30.4999 0.97235 30.476 0.977958 30.467L7.91434 19.1935C7.91911 19.1858 7.93361 19.1622 7.97041 19.1622C8.00722 19.1622 8.02172 19.1858 8.02649 19.1935L9.95003 22.3198L8.02939 25.4413C7.88927 25.669 7.96029 25.9672 8.18801 26.1073C8.41585 26.2475 8.71401 26.1764 8.85406 25.9487L16.4439 13.6131C16.4487 13.6054 16.4632 13.5818 16.5 13.5818C16.5367 13.5818 16.5513 13.6054 16.5561 13.6131L26.9877 30.5673H6.01233Z" fill="#8E6954"/>
</g>
<defs>
<clipPath id="clip0">
<rect width="33" height="33" fill="white"/>
</clipPath>
</defs>
</svg>
