<svg width="24" height="25" viewBox="0 0 24 25" fill="none" xmlns="http://www.w3.org/2000/svg">
<path d="M11.282 15.149C9.65546 15.149 8.33984 13.8254 8.33984 12.2068C8.33984 12.0872 8.34782 11.9756 8.35579 11.872C8.52323 10.3889 9.78303 9.26465 11.282 9.26465C12.781 9.26465 14.0408 10.3889 14.2083 11.872C14.2242 11.9756 14.2242 12.0872 14.2242 12.2068C14.2322 13.8254 12.9086 15.149 11.282 15.149ZM11.282 10.054C10.1897 10.054 9.27274 10.8753 9.14516 11.9517C9.13719 12.0314 9.12921 12.1112 9.12921 12.1989C9.12921 13.3869 10.094 14.3437 11.2741 14.3437C12.4621 14.3437 13.4189 13.3789 13.4189 12.1989C13.4189 12.1112 13.4109 12.0314 13.403 11.9597C13.2993 10.8753 12.3744 10.054 11.282 10.054Z" fill="#B78131"/>
<path d="M11.2828 16.377C9.60842 16.377 7.71872 16.3451 6.37121 16.0979C5.79712 15.9942 4.04297 15.6673 4.04297 14.3517C4.04297 13.0441 5.82104 11.9597 8.69148 11.5211L9.20975 11.4414L9.14596 11.9597C9.13799 12.0394 9.13001 12.1191 9.13001 12.1989C9.13001 13.3869 10.0948 14.3437 11.2749 14.3437C12.4629 14.3437 13.4197 13.3789 13.4197 12.1989C13.4197 12.1112 13.4117 12.0314 13.4038 11.9597L13.34 11.4414L13.8583 11.5211C16.7287 11.9597 18.5068 13.0441 18.5068 14.3517C18.5068 15.6753 16.7526 15.9942 16.1785 16.0979C14.847 16.3451 12.9573 16.377 11.2828 16.377ZM8.34862 12.3823C6.53865 12.7331 4.84828 13.4746 4.84828 14.3437C4.84828 15.5716 9.20178 15.5716 11.2908 15.5716C13.3799 15.5716 17.7333 15.5716 17.7333 14.3437C17.7333 13.4746 16.043 12.7331 14.233 12.3823C14.1373 13.9211 12.8536 15.1411 11.2908 15.1411C9.72005 15.149 8.4443 13.9211 8.34862 12.3823Z" fill="#B78131"/>
<path d="M16.7587 24.0242H5.81115V21.2813L2.78125 18.1318H19.7886L16.7587 21.2813V24.0242ZM6.60849 23.2268H15.9613V20.9624L17.9148 18.9292H4.655L6.60849 20.9624V23.2268Z" fill="#B78131"/>
<path d="M19.6143 18.9291H2.94981C2.02489 18.9291 1.27539 18.1796 1.27539 17.2547C1.27539 16.8081 1.45081 16.3856 1.76974 16.0666C2.08071 15.7477 2.5033 15.5723 2.94981 15.5723H19.6143C19.6382 15.5723 19.6701 15.5723 19.694 15.5723H19.702C20.595 15.6201 21.2887 16.3537 21.2887 17.2467C21.2887 17.3982 21.2648 17.5497 21.2249 17.6932C21.2249 17.7012 21.2249 17.7012 21.2169 17.7091C21.1372 17.9802 20.9937 18.2274 20.7943 18.4347C20.7864 18.4427 20.7704 18.4586 20.7624 18.4666C20.4834 18.7297 20.1166 18.8892 19.7339 18.9211C19.702 18.9291 19.6621 18.9291 19.6143 18.9291ZM2.94981 16.3776C2.71858 16.3776 2.49532 16.4653 2.32788 16.6327C2.16044 16.8002 2.07273 17.0155 2.07273 17.2547C2.07273 17.741 2.46343 18.1317 2.94981 18.1317H19.6143C19.6382 18.1317 19.6541 18.1317 19.678 18.1317C19.8854 18.1158 20.0767 18.0361 20.2202 17.8925L20.2282 17.8846L20.2362 17.8766C20.3478 17.765 20.4196 17.6374 20.4594 17.4939C20.4594 17.4859 20.4594 17.4859 20.4674 17.4779C20.4834 17.4062 20.4993 17.3344 20.4993 17.2547C20.4993 16.7842 20.1325 16.4015 19.6701 16.3776C19.6541 16.3776 19.6382 16.3776 19.6222 16.3776H2.94981Z" fill="#B78131"/>
<path d="M20.8497 17.988C20.8019 17.988 20.7461 17.9801 20.6982 17.9561C20.5148 17.8764 20.4112 17.6771 20.467 17.4777C20.4909 17.406 20.4989 17.3262 20.4989 17.2465C20.4989 16.7761 20.1321 16.3934 19.6696 16.3694C19.5421 16.3615 19.4225 16.2897 19.3507 16.1781C19.2789 16.0664 19.271 15.9309 19.3268 15.8113C19.861 14.5993 20.1321 13.3156 20.1321 11.9841C20.1321 6.79336 15.9062 2.55947 10.7075 2.55947C8.50686 2.55947 6.36999 3.33289 4.6876 4.73621C4.14541 5.18272 3.34009 5.11096 2.88561 4.56877C2.43112 4.02658 2.51086 3.22126 3.05305 2.76678C5.1979 0.980731 7.91683 0 10.7075 0C17.3095 0 22.6836 5.37409 22.6836 11.9761C22.6836 14.0013 22.1653 16.0027 21.1926 17.7728C21.1208 17.9163 20.9853 17.988 20.8497 17.988ZM20.2358 15.6997C20.5547 15.8272 20.8258 16.0505 21.0172 16.3375C21.5912 14.9661 21.8942 13.491 21.8942 12C21.8942 5.83654 16.879 0.821262 10.7155 0.821262C8.10819 0.821262 5.57265 1.73821 3.57132 3.40465C3.36401 3.57209 3.34009 3.87508 3.50753 4.08239C3.67497 4.28173 3.98594 4.31362 4.18527 4.14618C6.01119 2.62326 8.33145 1.78605 10.7155 1.78605C16.3527 1.78605 20.9374 6.37076 20.9374 12.008C20.9294 13.2757 20.6902 14.5196 20.2358 15.6997Z" fill="#B78131"/>
<path d="M6.62524 8.65112C6.40198 8.65112 6.22656 8.47571 6.22656 8.25245V5.8684C6.22656 5.64514 6.40198 5.46973 6.62524 5.46973C6.8485 5.46973 7.02391 5.64514 7.02391 5.8684V8.25245C7.02391 8.47571 6.8485 8.65112 6.62524 8.65112Z" fill="#B78131"/>
<path d="M8.95336 7.94214C8.7301 7.94214 8.55469 7.76672 8.55469 7.54347V5.15941C8.55469 4.93616 8.7301 4.76074 8.95336 4.76074C9.17661 4.76074 9.35203 4.93616 9.35203 5.15941V7.54347C9.35203 7.75875 9.17661 7.94214 8.95336 7.94214Z" fill="#B78131"/>
<path d="M11.2815 7.22436C11.0582 7.22436 10.8828 7.04895 10.8828 6.82569V4.44164C10.8828 4.21838 11.0582 4.04297 11.2815 4.04297C11.5047 4.04297 11.6802 4.21838 11.6802 4.44164V6.82569C11.6802 7.04097 11.5047 7.22436 11.2815 7.22436Z" fill="#B78131"/>
<path d="M13.6096 7.94214C13.3864 7.94214 13.2109 7.76672 13.2109 7.54347V5.15941C13.2109 4.93616 13.3864 4.76074 13.6096 4.76074C13.8329 4.76074 14.0083 4.93616 14.0083 5.15941V7.54347C14.0083 7.75875 13.8329 7.94214 13.6096 7.94214Z" fill="#B78131"/>
<path d="M15.9377 8.65112C15.7145 8.65112 15.5391 8.47571 15.5391 8.25245V5.8684C15.5391 5.64514 15.7145 5.46973 15.9377 5.46973C16.161 5.46973 16.3364 5.64514 16.3364 5.8684V8.25245C16.3364 8.47571 16.161 8.65112 15.9377 8.65112Z" fill="#B78131"/>
</svg>
