<svg width="26" height="18" viewBox="0 0 26 18" fill="none" xmlns="http://www.w3.org/2000/svg">
<path fill-rule="evenodd" clip-rule="evenodd" d="M1.792 1.5C1.59456 1.5 1.5 1.63971 1.5 1.73461V16.2654C1.5 16.3603 1.59456 16.5 1.792 16.5H24.208C24.4054 16.5 24.5 16.3603 24.5 16.2654V1.73461C24.5 1.63971 24.4054 1.5 24.208 1.5H1.792ZM0.5 1.73461C0.5 1.01792 1.11444 0.5 1.792 0.5H24.208C24.8856 0.5 25.5 1.01792 25.5 1.73461V16.2654C25.5 16.9821 24.8856 17.5 24.208 17.5H1.792C1.11444 17.5 0.5 16.9821 0.5 16.2654V1.73461Z" fill="#9B989B"/>
<path fill-rule="evenodd" clip-rule="evenodd" d="M9.93957 8.93009C11.6239 10.4632 14.3747 10.4632 16.059 8.93009L24.5005 0.938477L25.188 1.66467L16.7363 9.66593C14.6694 11.5514 11.3292 11.5513 9.26233 9.66587L9.25549 9.65963L0.810547 1.66467L1.49804 0.938477L9.93957 8.93009Z" fill="#9B989B"/>
<path fill-rule="evenodd" clip-rule="evenodd" d="M24.2379 17.1968L17.2539 8.42053L18.0364 7.79785L25.0204 16.5741L24.2379 17.1968Z" fill="#9B989B"/>
<path fill-rule="evenodd" clip-rule="evenodd" d="M0.769531 16.6797L8.09853 7.87695L8.86704 8.51679L1.53804 17.3196L0.769531 16.6797Z" fill="#9B989B"/>
</svg>
