<svg width="24" height="24" viewBox="0 0 24 24" fill="none" xmlns="http://www.w3.org/2000/svg">
<path d="M11.9992 10.3998C13.5432 10.3998 14.7992 9.1434 14.7992 7.5998C14.7992 6.0562 13.5432 4.7998 11.9992 4.7998C10.4552 4.7998 9.19922 6.0562 9.19922 7.5998C9.19922 9.1434 10.4552 10.3998 11.9992 10.3998ZM11.9992 5.5998C13.102 5.5998 13.9992 6.497 13.9992 7.5998C13.9992 8.7026 13.102 9.5998 11.9992 9.5998C10.8964 9.5998 9.99922 8.7026 9.99922 7.5998C9.99922 6.497 10.8964 5.5998 11.9992 5.5998Z" fill="#777777"/>
<path d="M11.9286 21.9028L18.065 13.04C20.3666 9.9716 20.0338 4.928 17.3526 2.2472C15.9038 0.798 13.9774 0 11.9286 0C9.87983 0 7.95343 0.798 6.50463 2.2468C3.82343 4.9276 3.49063 9.9712 5.78303 13.0276L11.9286 21.9028ZM7.07023 2.8124C8.36823 1.5148 10.0934 0.8 11.9286 0.8C13.7638 0.8 15.489 1.5148 16.787 2.8124C19.207 5.232 19.505 9.7872 17.4162 12.572L11.9286 20.4972L6.43223 12.56C4.35223 9.7872 4.65063 5.232 7.07023 2.8124Z" fill="#777777"/>
<path d="M16.8468 17.2023C16.6268 17.1755 16.4284 17.3331 16.4028 17.5527C16.3772 17.7723 16.534 17.9711 16.7532 17.9967C20.9596 18.4919 23.2 19.8263 23.2 20.5995C23.2 21.6851 18.9392 23.1995 12 23.1995C5.0608 23.1995 0.8 21.6851 0.8 20.5995C0.8 19.8263 3.0404 18.4919 7.2468 17.9967C7.466 17.9711 7.6228 17.7719 7.5972 17.5527C7.5712 17.3331 7.3728 17.1747 7.1532 17.2023C2.9416 17.6983 0 19.0951 0 20.5995C0 22.2891 4.122 23.9995 12 23.9995C19.878 23.9995 24 22.2891 24 20.5995C24 19.0951 21.0584 17.6983 16.8468 17.2023Z" fill="#777777"/>
</svg>
