<svg width="24" height="24" viewBox="0 0 24 24" fill="none" xmlns="http://www.w3.org/2000/svg">
<path d="M11.9615 4.04027C13.0772 4.04027 13.9817 3.13582 13.9817 2.02013C13.9817 0.904444 13.0772 0 11.9615 0C10.8459 0 9.94141 0.904444 9.94141 2.02013C9.94141 3.13582 10.8459 4.04027 11.9615 4.04027Z" fill="#B78131"/>
<path d="M12.6656 5.00351C12.1622 4.90131 11.6149 4.9058 11.1206 5.02233C7.76203 5.41587 6.67151 9.30329 6.97944 12.2674C7.11301 13.5488 9.13314 13.5623 8.99822 12.2674C8.88617 11.1872 8.93413 9.55699 9.5083 8.39833C9.5083 9.80665 9.5083 11.215 9.5083 12.6228C9.5083 12.6726 9.51323 12.7192 9.51547 12.7671C9.51413 12.79 9.50875 12.8093 9.50875 12.8326C9.50875 16.1848 9.50292 19.5357 9.36442 22.8853C9.30301 24.3743 11.6118 24.3685 11.6728 22.8853C11.7812 20.2601 11.8086 17.6335 11.8148 15.0065C11.9242 15.0136 12.0336 15.0136 12.1429 15.0074C12.1497 17.6344 12.1761 20.261 12.2837 22.8853C12.3451 24.3685 14.6539 24.3743 14.592 22.8853C14.4535 19.5357 14.4486 16.1848 14.4486 12.8326C14.4486 12.7286 14.4347 12.634 14.4136 12.543C14.4105 11.0877 14.3549 9.63094 14.3719 8.17647C15.0595 9.3405 15.1223 11.1159 15.003 12.2665C14.8677 13.5605 16.8883 13.5475 17.0218 12.2665C17.3369 9.24099 16.194 5.25272 12.6656 5.00351Z" fill="#B78131"/>
</svg>
