<svg width="42" height="39" viewBox="0 0 42 39" fill="none" xmlns="http://www.w3.org/2000/svg">
<path d="M30.6411 10.7339C30.5405 10.7339 30.4384 10.7117 30.343 10.6645C30.0151 10.5035 29.8826 10.1133 30.0475 9.79285C31.9659 6.07254 34.668 2.48188 35.3993 1.76833C35.9039 1.27584 36.5735 1.00282 37.2858 1C37.2891 1 37.293 1 37.2969 1C38.0066 1 38.6723 1.26883 39.1724 1.75727C39.4321 2.01085 39.4321 2.4219 39.1724 2.67526C38.9126 2.92884 38.4918 2.92884 38.232 2.67526C37.9813 2.4305 37.6326 2.29645 37.291 2.29832C36.9325 2.29991 36.5949 2.4378 36.3397 2.68661C35.8052 3.20808 33.1706 6.62378 31.236 10.3767C31.1191 10.6033 30.8847 10.7339 30.6411 10.7339Z" fill="#E5C18A"/>
<path d="M32.6365 4.89453H23.5075C22.4494 4.89453 21.4345 5.30486 20.6862 6.03532L2.43842 23.8486C1.91896 24.3556 1.91896 25.1776 2.43842 25.6846L14.6641 37.6192C15.1836 38.1263 16.0256 38.1263 16.5449 37.6192L34.7927 19.8059C35.5409 19.0755 35.9613 18.0848 35.9613 17.0518V8.14027C35.9614 6.34772 34.4727 4.89453 32.6365 4.89453ZM32.0521 11.4648C31.273 12.2254 30.0099 12.2254 29.2309 11.4648C28.4517 10.7042 28.4517 9.47119 29.2309 8.71066C30.01 7.95014 31.2731 7.95007 32.0521 8.71066C32.8311 9.47126 32.8312 10.7043 32.0521 11.4648Z" fill="#B78131"/>
<path d="M4.43444 25.7971L22.6821 7.98374C23.4304 7.25335 24.4452 6.84296 25.5034 6.84296H34.6323C35.0279 6.84296 35.4018 6.92202 35.7536 7.04566C35.2921 5.79438 34.0772 4.89453 32.6364 4.89453H23.5075C22.4494 4.89453 21.4345 5.30486 20.6862 6.03532L2.43842 23.8486C1.91896 24.3556 1.91896 25.1776 2.43842 25.6846L4.43437 27.6331C3.91499 27.1262 3.91499 26.3041 4.43444 25.7971Z" fill="#E6C18A"/>
<path d="M30.6423 10.7339C30.3988 10.7339 30.1644 10.6033 30.0475 10.3764C29.8826 10.0563 30.015 9.66602 30.343 9.50473C34.1869 7.61715 37.6859 5.04464 38.2204 4.52281C38.4755 4.27371 38.6166 3.94403 38.6184 3.59412C38.6197 3.24609 38.4826 2.91988 38.2321 2.67526C37.9815 2.43064 37.6327 2.29645 37.2911 2.29832C36.9326 2.29991 36.5949 2.4378 36.3398 2.68661C36.08 2.94019 35.6591 2.94019 35.3994 2.68661C35.1396 2.43339 35.1396 2.0222 35.3994 1.76862C35.9038 1.27577 36.5733 1.00282 37.2858 1C37.289 1 37.2929 1 37.2968 1C38.0066 1 38.6722 1.26883 39.1723 1.75727C39.6756 2.24824 39.9509 2.90246 39.9483 3.59918C39.9451 4.29423 39.6658 4.94823 39.1606 5.4408C38.43 6.15464 34.7511 8.79313 30.9404 10.6648C30.8449 10.7117 30.7423 10.7339 30.6423 10.7339Z" fill="#B78131"/>
<path d="M20.0031 29.3661C19.544 29.3661 19.1719 29.0028 19.1719 28.5546V15.7021C19.1719 15.2539 19.544 14.8906 20.0031 14.8906C20.4623 14.8906 20.8344 15.2539 20.8344 15.7021V28.5547C20.8344 29.0029 20.4623 29.3661 20.0031 29.3661Z" fill="white"/>
<path d="M15.3009 24.887C14.5463 24.887 13.8364 24.5998 13.3026 24.0787C12.7688 23.5579 12.4746 22.865 12.4746 22.128C12.4746 21.3911 12.7688 20.6982 13.3026 20.1771C13.8364 19.6563 14.5462 19.3691 15.3009 19.3691C16.0561 19.3691 16.766 19.6563 17.2991 20.1777C17.8329 20.6985 18.1271 21.3914 18.1271 22.128C18.1271 22.865 17.8329 23.5579 17.2991 24.079C16.766 24.5998 16.0562 24.887 15.3009 24.887ZM15.3009 20.992C14.9905 20.992 14.6982 21.1102 14.4781 21.3249C14.258 21.5395 14.1371 21.8247 14.1371 22.128C14.1371 22.4313 14.2579 22.7166 14.4781 22.931C14.9184 23.3611 15.6834 23.3591 16.1237 22.9316C16.3438 22.7168 16.4647 22.4315 16.4647 22.1281C16.4647 21.8248 16.3438 21.5395 16.1237 21.3252C16.1237 21.3249 16.1237 21.3249 16.1237 21.3245C15.9035 21.1102 15.6119 20.992 15.3009 20.992Z" fill="white"/>
<path d="M24.7052 24.8869C23.9499 24.8869 23.2401 24.5997 22.7069 24.0783C22.1731 23.5579 21.8789 22.865 21.8789 22.128C21.8789 21.3911 22.1731 20.6982 22.7069 20.1771C23.2401 19.6563 23.9498 19.3691 24.7052 19.3691C25.4597 19.3691 26.1696 19.6563 26.7034 20.1774C27.2372 20.6985 27.5314 21.3911 27.5314 22.1281C27.5314 22.8651 27.2372 23.5579 26.7034 24.079C26.1695 24.5997 25.4597 24.8869 24.7052 24.8869ZM24.7052 20.9919C24.3941 20.9919 24.1025 21.1102 23.8824 21.3245C23.6623 21.5393 23.5414 21.8247 23.5414 22.128C23.5414 22.4313 23.6622 22.7166 23.8824 22.931C24.3227 23.3604 25.0877 23.3615 25.528 22.9313C25.7481 22.7166 25.869 22.4314 25.869 22.1281C25.869 21.8248 25.7481 21.5395 25.528 21.3252C25.528 21.3249 25.528 21.3249 25.528 21.3249C25.3078 21.1102 25.0156 20.9919 24.7052 20.9919Z" fill="white"/>
<ellipse cx="32.2681" cy="18.5" rx="0.512197" ry="0.500001" fill="white"/>
<ellipse cx="33.2934" cy="15.5" rx="0.512194" ry="0.5" fill="#EEEEEE"/>
<ellipse cx="11.7798" cy="26.5" rx="0.512196" ry="0.5" fill="white"/>
<ellipse cx="8.70751" cy="27.5" rx="0.512195" ry="0.5" fill="white"/>
<ellipse cx="30.2192" cy="16.5" rx="0.512197" ry="0.500001" fill="white"/>
<ellipse cx="9.73095" cy="24.5" rx="0.512195" ry="0.500001" fill="#EEEEEE"/>
</svg>
