<svg width="24" height="24" viewBox="0 0 24 24" fill="none" xmlns="http://www.w3.org/2000/svg">
<g clip-path="url(#clip0)">
<path d="M0.400085 23.4104C0.322449 23.4104 0.245178 23.3877 0.178345 23.3432C0.0668335 23.2696 0 23.1445 0 23.0105V18.2102C0 18.0383 0.110046 17.8854 0.272827 17.831C0.390381 17.7914 0.655701 17.6393 0.868469 17.5166C1.14203 17.3589 1.40039 17.2101 1.58807 17.1453C1.79846 17.0726 2.01361 17.0109 2.22858 16.9493C2.54736 16.8578 2.84857 16.7714 3.13184 16.6501C3.36694 16.5496 3.5766 16.3817 3.79852 16.2037C4.03857 16.0117 4.28668 15.8121 4.59778 15.6696C5.12421 15.4281 5.69824 15.3545 6.25836 15.4517C6.59033 15.5101 6.92963 15.626 7.26764 15.7956C7.59595 15.9606 7.86401 16.1761 8.12329 16.3854C8.21924 16.4625 8.31519 16.5401 8.41443 16.6144C8.73212 16.8525 9.07837 17.0574 9.44366 17.2245C10.0204 17.4873 10.8842 17.7625 11.7239 17.5811C11.9273 17.5369 12.1265 17.4706 12.3375 17.3998C12.6226 17.3046 12.9179 17.2057 13.2442 17.1574C13.8466 17.0673 14.3851 17.0865 14.8455 17.2137C15.2767 17.3333 15.6052 17.6294 15.7709 18.0482C15.8513 18.2514 15.8912 18.4537 15.9293 18.6498C16.0911 18.639 16.2528 18.6194 16.4145 18.6006C16.5624 18.583 16.7108 18.5658 16.8593 18.5533C17.298 18.5175 17.7376 18.4841 18.1778 18.4598C19.205 18.401 20.1985 18.3162 21.0602 17.9299C21.587 17.6942 22.4767 17.6109 23.1575 17.9094C23.5563 18.0846 23.8315 18.3699 23.954 18.7354V18.7359C24.1196 19.2306 23.824 19.7794 23.2952 19.9594C22.8691 20.1039 22.444 20.2511 22.0186 20.3983L19.797 21.1663C19.6923 21.2027 19.5877 21.2432 19.4833 21.284C19.2361 21.3803 18.9802 21.4799 18.7009 21.5352C18.1745 21.6399 17.6841 21.6312 17.2094 21.622C16.9957 21.618 16.7796 21.6132 16.5568 21.6207C15.9091 21.6396 15.2732 21.7507 14.6664 21.9512C14.4692 22.0164 14.2734 22.0911 14.0779 22.1656C13.6111 22.3436 13.1279 22.5276 12.5999 22.6009C11.9934 22.684 11.3218 22.6404 10.7289 22.6012L10.4962 22.5861C10.0133 22.556 9.53375 22.4564 9.0705 22.3605C8.7301 22.2896 8.40839 22.2228 8.08649 22.1819C7.20923 22.0695 6.44678 22.0512 5.755 22.1268C4.28705 22.2872 1.94055 22.8001 0.554443 23.38C0.504822 23.4005 0.452454 23.4104 0.400085 23.4104ZM0.799988 18.4698V22.4284C2.29688 21.8968 4.33777 21.4768 5.66821 21.3312C6.42316 21.2483 7.2475 21.2671 8.18848 21.388C8.54077 21.4332 8.89288 21.5063 9.23328 21.5771C9.68921 21.6716 10.1201 21.7612 10.5461 21.7875L10.7822 21.8027C11.3637 21.8412 11.9654 21.8807 12.4911 21.8088C12.9287 21.7483 13.3488 21.5879 13.7935 21.4184C14.0006 21.3395 14.2072 21.2604 14.4159 21.1919C15.0963 20.967 15.8088 20.8423 16.5341 20.8207C16.7701 20.814 16.9984 20.8174 17.2245 20.8224C17.6768 20.8308 18.1036 20.8383 18.5457 20.7508C18.7562 20.709 18.9686 20.6259 19.1933 20.5388C19.3074 20.4943 19.4214 20.4499 19.5357 20.4102L21.7579 19.6415C22.1843 19.4943 22.6108 19.3467 23.0383 19.201C23.1352 19.1682 23.2236 19.073 23.1956 18.989C23.1456 18.8394 23.0279 18.7258 22.8367 18.6418C22.3971 18.449 21.7423 18.5002 21.3878 18.6594C20.4018 19.101 19.3286 19.1946 18.2238 19.2579C17.7905 19.2827 17.3577 19.3151 16.9257 19.3506C16.786 19.3619 16.6472 19.3782 16.5088 19.3947C16.3109 19.4178 16.1124 19.441 15.9131 19.4518C15.7723 19.4698 15.6244 19.4883 15.4823 19.4235C15.2287 19.3114 15.1835 19.1314 15.1875 18.9987C15.1747 18.9595 15.1615 18.8899 15.1479 18.8194C15.1148 18.6458 15.0831 18.4823 15.028 18.3426C14.9775 18.2153 14.8683 18.0498 14.6336 17.9846C14.2819 17.8874 13.8543 17.8749 13.363 17.9485C13.1063 17.987 12.8566 18.0701 12.5922 18.1582C12.3702 18.2325 12.141 18.3094 11.8951 18.3629C10.8402 18.5911 9.79962 18.2659 9.11206 17.9526C8.69476 17.7614 8.29926 17.527 7.93597 17.2549C7.82922 17.1749 7.72559 17.0918 7.62231 17.0081C7.38556 16.8173 7.16199 16.6373 6.91003 16.511C6.64105 16.376 6.37592 16.2852 6.12067 16.2396C5.72113 16.1697 5.31024 16.2244 4.93176 16.3973C4.71112 16.4985 4.51135 16.6586 4.30023 16.8281C4.04626 17.0317 3.78333 17.2421 3.44733 17.3862C3.11847 17.527 2.77899 17.6246 2.45087 17.7186C2.24927 17.7766 2.0473 17.8341 1.8501 17.9022C1.73456 17.9421 1.47656 18.091 1.26892 18.2106C1.10284 18.3051 0.94281 18.3966 0.799988 18.4698Z" fill="#B78131"/>
<path d="M11.829 20.5088C11.0842 20.5088 10.3377 20.4643 9.60212 20.3759C8.66719 20.2635 7.46308 20.0584 6.43989 19.4662C6.24873 19.3558 6.18355 19.111 6.29396 18.9198C6.40474 18.7283 6.64955 18.6626 6.84034 18.7743C7.73719 19.293 8.83839 19.4787 9.69734 19.5819C10.6121 19.6918 11.5449 19.7303 12.4683 19.6979L12.5382 19.6951C13.3179 19.6675 14.1239 19.638 14.7567 19.2723C14.9807 19.1427 15.1808 18.981 15.352 18.7926C15.5003 18.6291 15.7532 18.6162 15.9167 18.7646C16.0804 18.9127 16.0932 19.1659 15.9447 19.3294C15.718 19.5803 15.4531 19.794 15.1572 19.9652C14.3519 20.4308 13.4034 20.4647 12.567 20.4947L12.497 20.4971C12.2749 20.5048 12.0523 20.5088 11.829 20.5088Z" fill="#B78131"/>
<path d="M14.8015 15.8105C11.7132 15.8105 9.20117 13.4032 9.20117 10.4446C9.20117 5.85722 14.3078 0.928207 14.525 0.7202C14.6799 0.572434 14.923 0.572434 15.0774 0.7202C15.2951 0.928207 20.4017 5.85759 20.4017 10.4446C20.4017 13.4035 17.8895 15.8105 14.8015 15.8105ZM14.8015 1.57658C13.7418 2.66826 10.0012 6.78319 10.0012 10.4446C10.0012 12.9623 12.1545 15.0105 14.8015 15.0105C17.4484 15.0105 19.6016 12.9623 19.6016 10.4446C19.6016 6.77916 15.8615 2.66789 14.8015 1.57658Z" fill="#B78131"/>
<path d="M11.6031 12.3905C11.462 12.3905 11.3256 12.3158 11.2527 12.1838C10.9575 11.6489 10.8015 11.0478 10.8008 10.4452C10.8002 10.2245 10.9795 10.0453 11.2003 10.0449H11.2007C11.4215 10.0449 11.6004 10.2236 11.6008 10.4445C11.6011 10.9121 11.7231 11.3801 11.9531 11.7969C12.06 11.9906 11.9895 12.2338 11.7963 12.3405C11.7348 12.3746 11.6683 12.3905 11.6031 12.3905Z" fill="#B78131"/>
<path d="M14.8011 14.21C14.2115 14.2095 13.6477 14.0696 13.027 13.7698C12.8281 13.6739 12.7446 13.4347 12.8406 13.2359C12.9365 13.0366 13.1758 12.9539 13.3745 13.0495C13.883 13.2946 14.3362 13.4091 14.8011 13.4095C15.0219 13.4095 15.201 13.5887 15.2006 13.8099C15.201 14.0311 15.0219 14.21 14.8011 14.21Z" fill="#B78131"/>
</g>
<defs>
<clipPath id="clip0">
<rect width="24" height="24" fill="white"/>
</clipPath>
</defs>
</svg>
